<svg xmlns="http://www.w3.org/2000/svg" xmlns:xlink="http://www.w3.org/1999/xlink" width="1000" zoomAndPan="magnify" viewBox="0 0 750 374.999991" height="500" preserveAspectRatio="xMidYMid meet" version="1.0"><defs><g/><clipPath id="id1"><path d="M 303 112 L 346 112 L 346 137 L 303 137 Z M 303 112 " clip-rule="nonzero"/></clipPath><clipPath id="id2"><path d="M 345.832031 117.980469 C 334.058594 118.207031 322.261719 121.851562 311.929688 129.171875 C 308.851562 131.351562 306.058594 133.753906 303.519531 136.351562 C 304.875 134.65625 306.285156 133.019531 307.808594 131.433594 C 310.378906 128.863281 313.199219 126.488281 316.277344 124.339844 C 325.226562 117.980469 335.21875 114.164062 345.378906 112.695312 C 345.4375 114.53125 345.605469 116.285156 345.832031 117.980469 Z M 345.832031 117.980469 " clip-rule="evenodd"/></clipPath><linearGradient x1="540.984894" gradientTransform="matrix(-0.230359, 0.163346, -0.163128, -0.230668, 553.576656, 141.868807)" y1="515.40503" x2="711.689327" gradientUnits="userSpaceOnUse" y2="515.40503" id="id3"><stop stop-opacity="1" stop-color="rgb(43.099976%, 90.59906%, 50.19989%)" offset="0"/><stop stop-opacity="1" stop-color="rgb(43.238831%, 90.629578%, 50.112915%)" offset="0.015625"/><stop stop-opacity="1" stop-color="rgb(43.518066%, 90.690613%, 49.940491%)" offset="0.0234375"/><stop stop-opacity="1" stop-color="rgb(43.798828%, 90.751648%, 49.766541%)" offset="0.03125"/><stop stop-opacity="1" stop-color="rgb(44.081116%, 90.814209%, 49.594116%)" offset="0.0390625"/><stop stop-opacity="1" stop-color="rgb(44.361877%, 90.875244%, 49.420166%)" offset="0.046875"/><stop stop-opacity="1" stop-color="rgb(44.642639%, 90.936279%, 49.247742%)" offset="0.0546875"/><stop stop-opacity="1" stop-color="rgb(44.923401%, 90.997314%, 49.073792%)" offset="0.0625"/><stop stop-opacity="1" stop-color="rgb(45.205688%, 91.059875%, 48.901367%)" offset="0.0703125"/><stop stop-opacity="1" stop-color="rgb(45.48645%, 91.120911%, 48.727417%)" offset="0.078125"/><stop stop-opacity="1" stop-color="rgb(45.767212%, 91.181946%, 48.554993%)" offset="0.0859375"/><stop stop-opacity="1" stop-color="rgb(46.0495%, 91.242981%, 48.381042%)" offset="0.09375"/><stop stop-opacity="1" stop-color="rgb(46.330261%, 91.305542%, 48.208618%)" offset="0.101562"/><stop stop-opacity="1" stop-color="rgb(46.611023%, 91.366577%, 48.034668%)" offset="0.109375"/><stop stop-opacity="1" stop-color="rgb(46.891785%, 91.427612%, 47.860718%)" offset="0.117187"/><stop stop-opacity="1" stop-color="rgb(47.174072%, 91.488647%, 47.688293%)" offset="0.125"/><stop stop-opacity="1" stop-color="rgb(47.454834%, 91.551208%, 47.514343%)" offset="0.132812"/><stop stop-opacity="1" stop-color="rgb(47.735596%, 91.612244%, 47.341919%)" offset="0.140625"/><stop stop-opacity="1" stop-color="rgb(48.016357%, 91.673279%, 47.167969%)" offset="0.148438"/><stop stop-opacity="1" stop-color="rgb(48.298645%, 91.734314%, 46.995544%)" offset="0.15625"/><stop stop-opacity="1" stop-color="rgb(48.579407%, 91.796875%, 46.821594%)" offset="0.164062"/><stop stop-opacity="1" stop-color="rgb(48.860168%, 91.85791%, 46.64917%)" offset="0.171875"/><stop stop-opacity="1" stop-color="rgb(49.14093%, 91.918945%, 46.47522%)" offset="0.179688"/><stop stop-opacity="1" stop-color="rgb(49.423218%, 91.97998%, 46.30127%)" offset="0.1875"/><stop stop-opacity="1" stop-color="rgb(49.703979%, 92.042542%, 46.128845%)" offset="0.195312"/><stop stop-opacity="1" stop-color="rgb(49.984741%, 92.103577%, 45.954895%)" offset="0.203125"/><stop stop-opacity="1" stop-color="rgb(50.265503%, 92.164612%, 45.782471%)" offset="0.210938"/><stop stop-opacity="1" stop-color="rgb(50.547791%, 92.225647%, 45.608521%)" offset="0.21875"/><stop stop-opacity="1" stop-color="rgb(50.828552%, 92.288208%, 45.436096%)" offset="0.226562"/><stop stop-opacity="1" stop-color="rgb(51.109314%, 92.349243%, 45.262146%)" offset="0.234375"/><stop stop-opacity="1" stop-color="rgb(51.390076%, 92.410278%, 45.089722%)" offset="0.242188"/><stop stop-opacity="1" stop-color="rgb(51.672363%, 92.472839%, 44.915771%)" offset="0.25"/><stop stop-opacity="1" stop-color="rgb(51.953125%, 92.533875%, 44.743347%)" offset="0.257812"/><stop stop-opacity="1" stop-color="rgb(52.233887%, 92.59491%, 44.569397%)" offset="0.265625"/><stop stop-opacity="1" stop-color="rgb(52.514648%, 92.655945%, 44.395447%)" offset="0.273438"/><stop stop-opacity="1" stop-color="rgb(52.796936%, 92.718506%, 44.223022%)" offset="0.28125"/><stop stop-opacity="1" stop-color="rgb(53.077698%, 92.779541%, 44.049072%)" offset="0.289062"/><stop stop-opacity="1" stop-color="rgb(53.358459%, 92.840576%, 43.876648%)" offset="0.296875"/><stop stop-opacity="1" stop-color="rgb(53.640747%, 92.901611%, 43.702698%)" offset="0.304688"/><stop stop-opacity="1" stop-color="rgb(53.921509%, 92.964172%, 43.530273%)" offset="0.3125"/><stop stop-opacity="1" stop-color="rgb(54.202271%, 93.025208%, 43.356323%)" offset="0.320312"/><stop stop-opacity="1" stop-color="rgb(54.483032%, 93.086243%, 43.183899%)" offset="0.328125"/><stop stop-opacity="1" stop-color="rgb(54.76532%, 93.147278%, 43.009949%)" offset="0.335938"/><stop stop-opacity="1" stop-color="rgb(55.046082%, 93.209839%, 42.835999%)" offset="0.34375"/><stop stop-opacity="1" stop-color="rgb(55.326843%, 93.270874%, 42.663574%)" offset="0.351562"/><stop stop-opacity="1" stop-color="rgb(55.607605%, 93.331909%, 42.489624%)" offset="0.359375"/><stop stop-opacity="1" stop-color="rgb(55.889893%, 93.392944%, 42.3172%)" offset="0.367188"/><stop stop-opacity="1" stop-color="rgb(56.170654%, 93.455505%, 42.14325%)" offset="0.375"/><stop stop-opacity="1" stop-color="rgb(56.451416%, 93.516541%, 41.970825%)" offset="0.382812"/><stop stop-opacity="1" stop-color="rgb(56.732178%, 93.577576%, 41.796875%)" offset="0.390625"/><stop stop-opacity="1" stop-color="rgb(57.014465%, 93.638611%, 41.624451%)" offset="0.398438"/><stop stop-opacity="1" stop-color="rgb(57.295227%, 93.701172%, 41.4505%)" offset="0.40625"/><stop stop-opacity="1" stop-color="rgb(57.575989%, 93.762207%, 41.278076%)" offset="0.414062"/><stop stop-opacity="1" stop-color="rgb(57.85675%, 93.823242%, 41.104126%)" offset="0.421875"/><stop stop-opacity="1" stop-color="rgb(58.139038%, 93.884277%, 40.930176%)" offset="0.429688"/><stop stop-opacity="1" stop-color="rgb(58.4198%, 93.946838%, 40.757751%)" offset="0.4375"/><stop stop-opacity="1" stop-color="rgb(58.700562%, 94.007874%, 40.583801%)" offset="0.445312"/><stop stop-opacity="1" stop-color="rgb(58.981323%, 94.068909%, 40.411377%)" offset="0.453125"/><stop stop-opacity="1" stop-color="rgb(59.263611%, 94.129944%, 40.237427%)" offset="0.460938"/><stop stop-opacity="1" stop-color="rgb(59.544373%, 94.192505%, 40.065002%)" offset="0.46875"/><stop stop-opacity="1" stop-color="rgb(59.825134%, 94.25354%, 39.891052%)" offset="0.476562"/><stop stop-opacity="1" stop-color="rgb(60.105896%, 94.314575%, 39.718628%)" offset="0.484375"/><stop stop-opacity="1" stop-color="rgb(60.388184%, 94.377136%, 39.544678%)" offset="0.492188"/><stop stop-opacity="1" stop-color="rgb(60.668945%, 94.438171%, 39.372253%)" offset="0.5"/><stop stop-opacity="1" stop-color="rgb(60.949707%, 94.499207%, 39.198303%)" offset="0.507812"/><stop stop-opacity="1" stop-color="rgb(61.230469%, 94.560242%, 39.024353%)" offset="0.515625"/><stop stop-opacity="1" stop-color="rgb(61.512756%, 94.622803%, 38.851929%)" offset="0.523438"/><stop stop-opacity="1" stop-color="rgb(61.793518%, 94.683838%, 38.677979%)" offset="0.53125"/><stop stop-opacity="1" stop-color="rgb(62.07428%, 94.744873%, 38.505554%)" offset="0.539062"/><stop stop-opacity="1" stop-color="rgb(62.356567%, 94.805908%, 38.331604%)" offset="0.546875"/><stop stop-opacity="1" stop-color="rgb(62.637329%, 94.868469%, 38.15918%)" offset="0.554688"/><stop stop-opacity="1" stop-color="rgb(62.918091%, 94.929504%, 37.985229%)" offset="0.5625"/><stop stop-opacity="1" stop-color="rgb(63.198853%, 94.99054%, 37.812805%)" offset="0.570312"/><stop stop-opacity="1" stop-color="rgb(63.48114%, 95.051575%, 37.638855%)" offset="0.578125"/><stop stop-opacity="1" stop-color="rgb(63.761902%, 95.114136%, 37.464905%)" offset="0.585938"/><stop stop-opacity="1" stop-color="rgb(64.042664%, 95.175171%, 37.29248%)" offset="0.59375"/><stop stop-opacity="1" stop-color="rgb(64.323425%, 95.236206%, 37.11853%)" offset="0.601562"/><stop stop-opacity="1" stop-color="rgb(64.605713%, 95.297241%, 36.946106%)" offset="0.609375"/><stop stop-opacity="1" stop-color="rgb(64.886475%, 95.359802%, 36.772156%)" offset="0.617188"/><stop stop-opacity="1" stop-color="rgb(65.167236%, 95.420837%, 36.599731%)" offset="0.625"/><stop stop-opacity="1" stop-color="rgb(65.447998%, 95.481873%, 36.425781%)" offset="0.632812"/><stop stop-opacity="1" stop-color="rgb(65.730286%, 95.542908%, 36.253357%)" offset="0.640625"/><stop stop-opacity="1" stop-color="rgb(66.011047%, 95.605469%, 36.079407%)" offset="0.648438"/><stop stop-opacity="1" stop-color="rgb(66.291809%, 95.666504%, 35.906982%)" offset="0.65625"/><stop stop-opacity="1" stop-color="rgb(66.572571%, 95.727539%, 35.733032%)" offset="0.664062"/><stop stop-opacity="1" stop-color="rgb(66.854858%, 95.788574%, 35.559082%)" offset="0.671875"/><stop stop-opacity="1" stop-color="rgb(67.13562%, 95.851135%, 35.386658%)" offset="0.679688"/><stop stop-opacity="1" stop-color="rgb(67.416382%, 95.91217%, 35.212708%)" offset="0.6875"/><stop stop-opacity="1" stop-color="rgb(67.697144%, 95.973206%, 35.040283%)" offset="0.695312"/><stop stop-opacity="1" stop-color="rgb(67.979431%, 96.034241%, 34.866333%)" offset="0.703125"/><stop stop-opacity="1" stop-color="rgb(68.260193%, 96.096802%, 34.693909%)" offset="0.710938"/><stop stop-opacity="1" stop-color="rgb(68.540955%, 96.157837%, 34.519958%)" offset="0.71875"/><stop stop-opacity="1" stop-color="rgb(68.821716%, 96.218872%, 34.347534%)" offset="0.726562"/><stop stop-opacity="1" stop-color="rgb(69.104004%, 96.281433%, 34.173584%)" offset="0.734375"/><stop stop-opacity="1" stop-color="rgb(69.384766%, 96.342468%, 34.00116%)" offset="0.742188"/><stop stop-opacity="1" stop-color="rgb(69.665527%, 96.403503%, 33.827209%)" offset="0.75"/><stop stop-opacity="1" stop-color="rgb(69.947815%, 96.464539%, 33.653259%)" offset="0.757812"/><stop stop-opacity="1" stop-color="rgb(70.228577%, 96.5271%, 33.480835%)" offset="0.765625"/><stop stop-opacity="1" stop-color="rgb(70.509338%, 96.588135%, 33.306885%)" offset="0.773438"/><stop stop-opacity="1" stop-color="rgb(70.7901%, 96.64917%, 33.13446%)" offset="0.78125"/><stop stop-opacity="1" stop-color="rgb(71.072388%, 96.710205%, 32.96051%)" offset="0.789062"/><stop stop-opacity="1" stop-color="rgb(71.353149%, 96.772766%, 32.788086%)" offset="0.796875"/><stop stop-opacity="1" stop-color="rgb(71.633911%, 96.833801%, 32.614136%)" offset="0.804688"/><stop stop-opacity="1" stop-color="rgb(71.914673%, 96.894836%, 32.441711%)" offset="0.8125"/><stop stop-opacity="1" stop-color="rgb(72.19696%, 96.955872%, 32.267761%)" offset="0.820312"/><stop stop-opacity="1" stop-color="rgb(72.477722%, 97.018433%, 32.093811%)" offset="0.828125"/><stop stop-opacity="1" stop-color="rgb(72.758484%, 97.079468%, 31.921387%)" offset="0.835938"/><stop stop-opacity="1" stop-color="rgb(73.039246%, 97.140503%, 31.747437%)" offset="0.84375"/><stop stop-opacity="1" stop-color="rgb(73.321533%, 97.201538%, 31.575012%)" offset="0.851562"/><stop stop-opacity="1" stop-color="rgb(73.602295%, 97.264099%, 31.401062%)" offset="0.859375"/><stop stop-opacity="1" stop-color="rgb(73.883057%, 97.325134%, 31.228638%)" offset="0.867188"/><stop stop-opacity="1" stop-color="rgb(74.163818%, 97.386169%, 31.054688%)" offset="0.875"/><stop stop-opacity="1" stop-color="rgb(74.446106%, 97.447205%, 30.882263%)" offset="0.882812"/><stop stop-opacity="1" stop-color="rgb(74.726868%, 97.509766%, 30.708313%)" offset="0.890625"/><stop stop-opacity="1" stop-color="rgb(75.007629%, 97.570801%, 30.535889%)" offset="0.898438"/><stop stop-opacity="1" stop-color="rgb(75.288391%, 97.631836%, 30.361938%)" offset="0.90625"/><stop stop-opacity="1" stop-color="rgb(75.570679%, 97.692871%, 30.187988%)" offset="0.914062"/><stop stop-opacity="1" stop-color="rgb(75.85144%, 97.755432%, 30.015564%)" offset="0.921875"/><stop stop-opacity="1" stop-color="rgb(76.132202%, 97.816467%, 29.841614%)" offset="0.929688"/><stop stop-opacity="1" stop-color="rgb(76.412964%, 97.877502%, 29.669189%)" offset="0.9375"/><stop stop-opacity="1" stop-color="rgb(76.695251%, 97.940063%, 29.495239%)" offset="0.945312"/><stop stop-opacity="1" stop-color="rgb(76.976013%, 98.001099%, 29.322815%)" offset="0.953125"/><stop stop-opacity="1" stop-color="rgb(77.256775%, 98.062134%, 29.148865%)" offset="0.960938"/><stop stop-opacity="1" stop-color="rgb(77.539062%, 98.123169%, 28.97644%)" offset="0.96875"/><stop stop-opacity="1" stop-color="rgb(77.819824%, 98.18573%, 28.80249%)" offset="0.976562"/><stop stop-opacity="1" stop-color="rgb(78.100586%, 98.246765%, 28.62854%)" offset="0.984375"/><stop stop-opacity="1" stop-color="rgb(78.381348%, 98.3078%, 28.456116%)" offset="0.992188"/><stop stop-opacity="1" stop-color="rgb(78.660583%, 98.368835%, 28.283691%)" offset="1"/></linearGradient><clipPath id="id4"><path d="M 302 153 L 423 153 L 423 246 L 302 246 Z M 302 153 " clip-rule="nonzero"/></clipPath><clipPath id="id5"><path d="M 394.578125 232.878906 C 364.828125 253.960938 323.785156 247.292969 302.191406 218.066406 C 322.429688 241.46875 357.488281 246.078125 383.257812 227.816406 C 407 210.972656 415.042969 180.191406 404.148438 154.441406 C 408.464844 154.214844 413.039062 153.765625 417.921875 153.085938 C 429.355469 181.238281 420.433594 214.5625 394.578125 232.878906 Z M 394.578125 232.878906 " clip-rule="evenodd"/></clipPath><linearGradient x1="382.085707" gradientTransform="matrix(-0.230359, 0.163346, -0.163128, -0.230668, 553.576656, 141.868807)" y1="178.625" x2="955.99522" gradientUnits="userSpaceOnUse" y2="178.625" id="id6"><stop stop-opacity="1" stop-color="rgb(43.099976%, 90.59906%, 50.19989%)" offset="0"/><stop stop-opacity="1" stop-color="rgb(43.206787%, 90.621948%, 50.132751%)" offset="0.0625"/><stop stop-opacity="1" stop-color="rgb(43.486023%, 90.682983%, 49.960327%)" offset="0.0703125"/><stop stop-opacity="1" stop-color="rgb(43.829346%, 90.757751%, 49.749756%)" offset="0.078125"/><stop stop-opacity="1" stop-color="rgb(44.171143%, 90.83252%, 49.537659%)" offset="0.0859375"/><stop stop-opacity="1" stop-color="rgb(44.512939%, 90.907288%, 49.327087%)" offset="0.09375"/><stop stop-opacity="1" stop-color="rgb(44.856262%, 90.982056%, 49.116516%)" offset="0.101562"/><stop stop-opacity="1" stop-color="rgb(45.198059%, 91.056824%, 48.905945%)" offset="0.109375"/><stop stop-opacity="1" stop-color="rgb(45.539856%, 91.131592%, 48.693848%)" offset="0.117187"/><stop stop-opacity="1" stop-color="rgb(45.883179%, 91.20636%, 48.483276%)" offset="0.125"/><stop stop-opacity="1" stop-color="rgb(46.224976%, 91.281128%, 48.272705%)" offset="0.132812"/><stop stop-opacity="1" stop-color="rgb(46.568298%, 91.355896%, 48.062134%)" offset="0.140625"/><stop stop-opacity="1" stop-color="rgb(46.910095%, 91.430664%, 47.850037%)" offset="0.148438"/><stop stop-opacity="1" stop-color="rgb(47.251892%, 91.505432%, 47.639465%)" offset="0.15625"/><stop stop-opacity="1" stop-color="rgb(47.595215%, 91.5802%, 47.428894%)" offset="0.164062"/><stop stop-opacity="1" stop-color="rgb(47.937012%, 91.654968%, 47.216797%)" offset="0.171875"/><stop stop-opacity="1" stop-color="rgb(48.280334%, 91.729736%, 47.006226%)" offset="0.179688"/><stop stop-opacity="1" stop-color="rgb(48.622131%, 91.804504%, 46.795654%)" offset="0.1875"/><stop stop-opacity="1" stop-color="rgb(48.963928%, 91.880798%, 46.585083%)" offset="0.195312"/><stop stop-opacity="1" stop-color="rgb(49.307251%, 91.955566%, 46.372986%)" offset="0.203125"/><stop stop-opacity="1" stop-color="rgb(49.649048%, 92.030334%, 46.162415%)" offset="0.210937"/><stop stop-opacity="1" stop-color="rgb(49.992371%, 92.105103%, 45.951843%)" offset="0.21875"/><stop stop-opacity="1" stop-color="rgb(50.334167%, 92.179871%, 45.739746%)" offset="0.226562"/><stop stop-opacity="1" stop-color="rgb(50.675964%, 92.254639%, 45.529175%)" offset="0.234375"/><stop stop-opacity="1" stop-color="rgb(51.019287%, 92.329407%, 45.318604%)" offset="0.242187"/><stop stop-opacity="1" stop-color="rgb(51.361084%, 92.404175%, 45.108032%)" offset="0.25"/><stop stop-opacity="1" stop-color="rgb(51.702881%, 92.478943%, 44.895935%)" offset="0.257812"/><stop stop-opacity="1" stop-color="rgb(52.046204%, 92.553711%, 44.685364%)" offset="0.265625"/><stop stop-opacity="1" stop-color="rgb(52.388%, 92.628479%, 44.474792%)" offset="0.273437"/><stop stop-opacity="1" stop-color="rgb(52.731323%, 92.703247%, 44.262695%)" offset="0.28125"/><stop stop-opacity="1" stop-color="rgb(53.07312%, 92.778015%, 44.052124%)" offset="0.289062"/><stop stop-opacity="1" stop-color="rgb(53.414917%, 92.852783%, 43.841553%)" offset="0.296875"/><stop stop-opacity="1" stop-color="rgb(53.75824%, 92.927551%, 43.630981%)" offset="0.304688"/><stop stop-opacity="1" stop-color="rgb(54.100037%, 93.002319%, 43.418884%)" offset="0.3125"/><stop stop-opacity="1" stop-color="rgb(54.443359%, 93.077087%, 43.208313%)" offset="0.320312"/><stop stop-opacity="1" stop-color="rgb(54.785156%, 93.151855%, 42.997742%)" offset="0.328125"/><stop stop-opacity="1" stop-color="rgb(55.126953%, 93.226624%, 42.78717%)" offset="0.335938"/><stop stop-opacity="1" stop-color="rgb(55.470276%, 93.301392%, 42.575073%)" offset="0.34375"/><stop stop-opacity="1" stop-color="rgb(55.812073%, 93.37616%, 42.364502%)" offset="0.351562"/><stop stop-opacity="1" stop-color="rgb(56.155396%, 93.450928%, 42.153931%)" offset="0.359375"/><stop stop-opacity="1" stop-color="rgb(56.497192%, 93.525696%, 41.941833%)" offset="0.367187"/><stop stop-opacity="1" stop-color="rgb(56.838989%, 93.600464%, 41.731262%)" offset="0.375"/><stop stop-opacity="1" stop-color="rgb(57.182312%, 93.675232%, 41.520691%)" offset="0.382812"/><stop stop-opacity="1" stop-color="rgb(57.524109%, 93.75%, 41.31012%)" offset="0.390625"/><stop stop-opacity="1" stop-color="rgb(57.865906%, 93.824768%, 41.098022%)" offset="0.398437"/><stop stop-opacity="1" stop-color="rgb(58.209229%, 93.899536%, 40.887451%)" offset="0.40625"/><stop stop-opacity="1" stop-color="rgb(58.551025%, 93.974304%, 40.67688%)" offset="0.414062"/><stop stop-opacity="1" stop-color="rgb(58.894348%, 94.049072%, 40.464783%)" offset="0.421875"/><stop stop-opacity="1" stop-color="rgb(59.236145%, 94.12384%, 40.254211%)" offset="0.429688"/><stop stop-opacity="1" stop-color="rgb(59.577942%, 94.198608%, 40.04364%)" offset="0.4375"/><stop stop-opacity="1" stop-color="rgb(59.921265%, 94.273376%, 39.833069%)" offset="0.445313"/><stop stop-opacity="1" stop-color="rgb(60.263062%, 94.348145%, 39.620972%)" offset="0.453125"/><stop stop-opacity="1" stop-color="rgb(60.606384%, 94.422913%, 39.4104%)" offset="0.460937"/><stop stop-opacity="1" stop-color="rgb(60.948181%, 94.497681%, 39.199829%)" offset="0.46875"/><stop stop-opacity="1" stop-color="rgb(61.289978%, 94.572449%, 38.989258%)" offset="0.476562"/><stop stop-opacity="1" stop-color="rgb(61.633301%, 94.647217%, 38.777161%)" offset="0.484375"/><stop stop-opacity="1" stop-color="rgb(61.975098%, 94.723511%, 38.566589%)" offset="0.492188"/><stop stop-opacity="1" stop-color="rgb(62.31842%, 94.798279%, 38.356018%)" offset="0.5"/><stop stop-opacity="1" stop-color="rgb(62.660217%, 94.873047%, 38.143921%)" offset="0.507812"/><stop stop-opacity="1" stop-color="rgb(63.002014%, 94.947815%, 37.93335%)" offset="0.515625"/><stop stop-opacity="1" stop-color="rgb(63.345337%, 95.022583%, 37.722778%)" offset="0.523438"/><stop stop-opacity="1" stop-color="rgb(63.687134%, 95.097351%, 37.512207%)" offset="0.53125"/><stop stop-opacity="1" stop-color="rgb(64.028931%, 95.172119%, 37.30011%)" offset="0.539062"/><stop stop-opacity="1" stop-color="rgb(64.372253%, 95.246887%, 37.089539%)" offset="0.546875"/><stop stop-opacity="1" stop-color="rgb(64.71405%, 95.321655%, 36.878967%)" offset="0.554688"/><stop stop-opacity="1" stop-color="rgb(65.057373%, 95.396423%, 36.66687%)" offset="0.5625"/><stop stop-opacity="1" stop-color="rgb(65.39917%, 95.471191%, 36.456299%)" offset="0.570312"/><stop stop-opacity="1" stop-color="rgb(65.740967%, 95.545959%, 36.245728%)" offset="0.578125"/><stop stop-opacity="1" stop-color="rgb(66.08429%, 95.620728%, 36.035156%)" offset="0.585937"/><stop stop-opacity="1" stop-color="rgb(66.426086%, 95.695496%, 35.823059%)" offset="0.59375"/><stop stop-opacity="1" stop-color="rgb(66.769409%, 95.770264%, 35.612488%)" offset="0.601562"/><stop stop-opacity="1" stop-color="rgb(67.111206%, 95.845032%, 35.401917%)" offset="0.609375"/><stop stop-opacity="1" stop-color="rgb(67.453003%, 95.9198%, 35.189819%)" offset="0.617188"/><stop stop-opacity="1" stop-color="rgb(67.796326%, 95.994568%, 34.979248%)" offset="0.625"/><stop stop-opacity="1" stop-color="rgb(68.138123%, 96.069336%, 34.768677%)" offset="0.632812"/><stop stop-opacity="1" stop-color="rgb(68.481445%, 96.144104%, 34.558105%)" offset="0.640625"/><stop stop-opacity="1" stop-color="rgb(68.823242%, 96.218872%, 34.346008%)" offset="0.648438"/><stop stop-opacity="1" stop-color="rgb(69.165039%, 96.29364%, 34.135437%)" offset="0.65625"/><stop stop-opacity="1" stop-color="rgb(69.508362%, 96.368408%, 33.924866%)" offset="0.664062"/><stop stop-opacity="1" stop-color="rgb(69.850159%, 96.443176%, 33.714294%)" offset="0.671875"/><stop stop-opacity="1" stop-color="rgb(70.193481%, 96.517944%, 33.502197%)" offset="0.679687"/><stop stop-opacity="1" stop-color="rgb(70.535278%, 96.592712%, 33.291626%)" offset="0.6875"/><stop stop-opacity="1" stop-color="rgb(70.877075%, 96.66748%, 33.081055%)" offset="0.695312"/><stop stop-opacity="1" stop-color="rgb(71.220398%, 96.742249%, 32.868958%)" offset="0.703125"/><stop stop-opacity="1" stop-color="rgb(71.562195%, 96.817017%, 32.658386%)" offset="0.710938"/><stop stop-opacity="1" stop-color="rgb(71.903992%, 96.891785%, 32.447815%)" offset="0.71875"/><stop stop-opacity="1" stop-color="rgb(72.247314%, 96.966553%, 32.237244%)" offset="0.726562"/><stop stop-opacity="1" stop-color="rgb(72.589111%, 97.041321%, 32.025146%)" offset="0.734375"/><stop stop-opacity="1" stop-color="rgb(72.932434%, 97.116089%, 31.814575%)" offset="0.742188"/><stop stop-opacity="1" stop-color="rgb(73.274231%, 97.190857%, 31.604004%)" offset="0.75"/><stop stop-opacity="1" stop-color="rgb(73.616028%, 97.265625%, 31.391907%)" offset="0.757812"/><stop stop-opacity="1" stop-color="rgb(73.959351%, 97.340393%, 31.181335%)" offset="0.765625"/><stop stop-opacity="1" stop-color="rgb(74.301147%, 97.415161%, 30.970764%)" offset="0.773437"/><stop stop-opacity="1" stop-color="rgb(74.64447%, 97.489929%, 30.760193%)" offset="0.78125"/><stop stop-opacity="1" stop-color="rgb(74.986267%, 97.564697%, 30.548096%)" offset="0.789062"/><stop stop-opacity="1" stop-color="rgb(75.328064%, 97.640991%, 30.337524%)" offset="0.796875"/><stop stop-opacity="1" stop-color="rgb(75.671387%, 97.715759%, 30.126953%)" offset="0.804688"/><stop stop-opacity="1" stop-color="rgb(76.013184%, 97.790527%, 29.916382%)" offset="0.8125"/><stop stop-opacity="1" stop-color="rgb(76.356506%, 97.865295%, 29.704285%)" offset="0.820312"/><stop stop-opacity="1" stop-color="rgb(76.698303%, 97.940063%, 29.493713%)" offset="0.828125"/><stop stop-opacity="1" stop-color="rgb(77.0401%, 98.014832%, 29.283142%)" offset="0.835938"/><stop stop-opacity="1" stop-color="rgb(77.383423%, 98.0896%, 29.071045%)" offset="0.84375"/><stop stop-opacity="1" stop-color="rgb(77.72522%, 98.164368%, 28.860474%)" offset="0.851562"/><stop stop-opacity="1" stop-color="rgb(78.067017%, 98.239136%, 28.649902%)" offset="0.859375"/><stop stop-opacity="1" stop-color="rgb(78.410339%, 98.313904%, 28.439331%)" offset="0.867187"/><stop stop-opacity="1" stop-color="rgb(78.689575%, 98.374939%, 28.266907%)" offset="0.875"/><stop stop-opacity="1" stop-color="rgb(78.799438%, 98.399353%, 28.199768%)" offset="1"/></linearGradient><clipPath id="id7"><path d="M 269 79 L 452 79 L 452 265 L 269 265 Z M 269 79 " clip-rule="nonzero"/></clipPath><clipPath id="id8"><path d="M 400.167969 249.015625 C 412.617188 240.199219 421.902344 228.550781 427.800781 215.550781 C 422.410156 225.105469 414.875 233.640625 405.363281 240.394531 C 370.753906 264.929688 322.824219 256.734375 298.324219 222.078125 C 273.824219 187.425781 282.007812 139.460938 316.617188 114.898438 C 327.058594 107.496094 338.71875 103.085938 350.574219 101.445312 C 345.773438 147.121094 379.027344 160.011719 451.964844 138.640625 C 440.277344 127.476562 437.117188 120.808594 422.214844 99.042969 C 407.308594 77.28125 372.84375 70.835938 350.261719 93.957031 C 384.53125 99.75 403.949219 110.265625 412.558594 120.355469 C 403.132812 109.867188 365.589844 99.242188 350.996094 97.882812 C 334.738281 98.082031 318.367188 103.058594 304.113281 113.175781 C 266.652344 139.746094 257.789062 191.667969 284.324219 229.175781 C 310.828125 266.710938 362.710938 275.585938 400.167969 249.015625 Z M 400.167969 249.015625 " clip-rule="evenodd"/></clipPath><linearGradient x1="148.543175" gradientTransform="matrix(-0.230359, 0.163346, -0.163128, -0.230668, 553.576656, 141.868807)" y1="299.11899" x2="1128.577833" gradientUnits="userSpaceOnUse" y2="299.11899" id="id9"><stop stop-opacity="1" stop-color="rgb(43.099976%, 90.59906%, 50.19989%)" offset="0"/><stop stop-opacity="1" stop-color="rgb(43.099976%, 90.59906%, 50.19989%)" offset="0.125"/><stop stop-opacity="1" stop-color="rgb(43.099976%, 90.59906%, 50.19989%)" offset="0.140625"/><stop stop-opacity="1" stop-color="rgb(43.276978%, 90.637207%, 50.088501%)" offset="0.148438"/><stop stop-opacity="1" stop-color="rgb(43.659973%, 90.72113%, 49.853516%)" offset="0.152344"/><stop stop-opacity="1" stop-color="rgb(43.864441%, 90.766907%, 49.728394%)" offset="0.15625"/><stop stop-opacity="1" stop-color="rgb(44.067383%, 90.811157%, 49.601746%)" offset="0.160156"/><stop stop-opacity="1" stop-color="rgb(44.271851%, 90.855408%, 49.476624%)" offset="0.164063"/><stop stop-opacity="1" stop-color="rgb(44.476318%, 90.899658%, 49.349976%)" offset="0.167969"/><stop stop-opacity="1" stop-color="rgb(44.680786%, 90.945435%, 49.224854%)" offset="0.171875"/><stop stop-opacity="1" stop-color="rgb(44.883728%, 90.989685%, 49.098206%)" offset="0.175781"/><stop stop-opacity="1" stop-color="rgb(45.088196%, 91.033936%, 48.973083%)" offset="0.179688"/><stop stop-opacity="1" stop-color="rgb(45.292664%, 91.078186%, 48.846436%)" offset="0.183594"/><stop stop-opacity="1" stop-color="rgb(45.497131%, 91.122437%, 48.721313%)" offset="0.1875"/><stop stop-opacity="1" stop-color="rgb(45.700073%, 91.166687%, 48.594666%)" offset="0.191406"/><stop stop-opacity="1" stop-color="rgb(45.904541%, 91.212463%, 48.469543%)" offset="0.195313"/><stop stop-opacity="1" stop-color="rgb(46.109009%, 91.256714%, 48.344421%)" offset="0.199219"/><stop stop-opacity="1" stop-color="rgb(46.313477%, 91.300964%, 48.219299%)" offset="0.203125"/><stop stop-opacity="1" stop-color="rgb(46.516418%, 91.345215%, 48.092651%)" offset="0.207031"/><stop stop-opacity="1" stop-color="rgb(46.720886%, 91.390991%, 47.967529%)" offset="0.210938"/><stop stop-opacity="1" stop-color="rgb(46.925354%, 91.435242%, 47.840881%)" offset="0.214844"/><stop stop-opacity="1" stop-color="rgb(47.129822%, 91.479492%, 47.715759%)" offset="0.21875"/><stop stop-opacity="1" stop-color="rgb(47.332764%, 91.523743%, 47.589111%)" offset="0.222656"/><stop stop-opacity="1" stop-color="rgb(47.537231%, 91.569519%, 47.463989%)" offset="0.226563"/><stop stop-opacity="1" stop-color="rgb(47.741699%, 91.61377%, 47.337341%)" offset="0.230469"/><stop stop-opacity="1" stop-color="rgb(47.946167%, 91.65802%, 47.212219%)" offset="0.234375"/><stop stop-opacity="1" stop-color="rgb(48.149109%, 91.702271%, 47.085571%)" offset="0.238281"/><stop stop-opacity="1" stop-color="rgb(48.353577%, 91.748047%, 46.960449%)" offset="0.242188"/><stop stop-opacity="1" stop-color="rgb(48.558044%, 91.792297%, 46.835327%)" offset="0.246094"/><stop stop-opacity="1" stop-color="rgb(48.762512%, 91.836548%, 46.710205%)" offset="0.25"/><stop stop-opacity="1" stop-color="rgb(48.965454%, 91.880798%, 46.583557%)" offset="0.253906"/><stop stop-opacity="1" stop-color="rgb(49.169922%, 91.925049%, 46.458435%)" offset="0.257813"/><stop stop-opacity="1" stop-color="rgb(49.37439%, 91.969299%, 46.331787%)" offset="0.261719"/><stop stop-opacity="1" stop-color="rgb(49.578857%, 92.015076%, 46.206665%)" offset="0.265625"/><stop stop-opacity="1" stop-color="rgb(49.781799%, 92.059326%, 46.080017%)" offset="0.269531"/><stop stop-opacity="1" stop-color="rgb(49.986267%, 92.103577%, 45.954895%)" offset="0.273438"/><stop stop-opacity="1" stop-color="rgb(50.190735%, 92.147827%, 45.828247%)" offset="0.277344"/><stop stop-opacity="1" stop-color="rgb(50.395203%, 92.193604%, 45.703125%)" offset="0.28125"/><stop stop-opacity="1" stop-color="rgb(50.598145%, 92.237854%, 45.576477%)" offset="0.285156"/><stop stop-opacity="1" stop-color="rgb(50.802612%, 92.282104%, 45.451355%)" offset="0.289062"/><stop stop-opacity="1" stop-color="rgb(51.00708%, 92.326355%, 45.326233%)" offset="0.292969"/><stop stop-opacity="1" stop-color="rgb(51.211548%, 92.372131%, 45.201111%)" offset="0.296875"/><stop stop-opacity="1" stop-color="rgb(51.41449%, 92.416382%, 45.074463%)" offset="0.300781"/><stop stop-opacity="1" stop-color="rgb(51.618958%, 92.460632%, 44.949341%)" offset="0.304688"/><stop stop-opacity="1" stop-color="rgb(51.821899%, 92.504883%, 44.822693%)" offset="0.308594"/><stop stop-opacity="1" stop-color="rgb(52.026367%, 92.549133%, 44.697571%)" offset="0.3125"/><stop stop-opacity="1" stop-color="rgb(52.230835%, 92.593384%, 44.570923%)" offset="0.316406"/><stop stop-opacity="1" stop-color="rgb(52.435303%, 92.63916%, 44.445801%)" offset="0.320312"/><stop stop-opacity="1" stop-color="rgb(52.638245%, 92.683411%, 44.319153%)" offset="0.324219"/><stop stop-opacity="1" stop-color="rgb(52.842712%, 92.727661%, 44.194031%)" offset="0.328125"/><stop stop-opacity="1" stop-color="rgb(53.04718%, 92.771912%, 44.067383%)" offset="0.332031"/><stop stop-opacity="1" stop-color="rgb(53.251648%, 92.817688%, 43.942261%)" offset="0.335938"/><stop stop-opacity="1" stop-color="rgb(53.45459%, 92.861938%, 43.817139%)" offset="0.339844"/><stop stop-opacity="1" stop-color="rgb(53.659058%, 92.906189%, 43.692017%)" offset="0.34375"/><stop stop-opacity="1" stop-color="rgb(53.863525%, 92.950439%, 43.565369%)" offset="0.347656"/><stop stop-opacity="1" stop-color="rgb(54.067993%, 92.996216%, 43.440247%)" offset="0.351562"/><stop stop-opacity="1" stop-color="rgb(54.270935%, 93.040466%, 43.313599%)" offset="0.355469"/><stop stop-opacity="1" stop-color="rgb(54.475403%, 93.084717%, 43.188477%)" offset="0.359375"/><stop stop-opacity="1" stop-color="rgb(54.679871%, 93.128967%, 43.061829%)" offset="0.363281"/><stop stop-opacity="1" stop-color="rgb(54.884338%, 93.174744%, 42.936707%)" offset="0.367188"/><stop stop-opacity="1" stop-color="rgb(55.08728%, 93.218994%, 42.810059%)" offset="0.371094"/><stop stop-opacity="1" stop-color="rgb(55.291748%, 93.263245%, 42.684937%)" offset="0.375"/><stop stop-opacity="1" stop-color="rgb(55.496216%, 93.307495%, 42.558289%)" offset="0.378906"/><stop stop-opacity="1" stop-color="rgb(55.700684%, 93.351746%, 42.433167%)" offset="0.382813"/><stop stop-opacity="1" stop-color="rgb(55.903625%, 93.395996%, 42.308044%)" offset="0.386719"/><stop stop-opacity="1" stop-color="rgb(56.108093%, 93.441772%, 42.182922%)" offset="0.390625"/><stop stop-opacity="1" stop-color="rgb(56.312561%, 93.486023%, 42.056274%)" offset="0.394531"/><stop stop-opacity="1" stop-color="rgb(56.517029%, 93.530273%, 41.931152%)" offset="0.398438"/><stop stop-opacity="1" stop-color="rgb(56.719971%, 93.574524%, 41.804504%)" offset="0.402344"/><stop stop-opacity="1" stop-color="rgb(56.924438%, 93.6203%, 41.679382%)" offset="0.40625"/><stop stop-opacity="1" stop-color="rgb(57.128906%, 93.664551%, 41.552734%)" offset="0.410156"/><stop stop-opacity="1" stop-color="rgb(57.333374%, 93.708801%, 41.427612%)" offset="0.414063"/><stop stop-opacity="1" stop-color="rgb(57.536316%, 93.753052%, 41.300964%)" offset="0.417969"/><stop stop-opacity="1" stop-color="rgb(57.740784%, 93.798828%, 41.175842%)" offset="0.421875"/><stop stop-opacity="1" stop-color="rgb(57.945251%, 93.843079%, 41.049194%)" offset="0.425781"/><stop stop-opacity="1" stop-color="rgb(58.149719%, 93.887329%, 40.924072%)" offset="0.429688"/><stop stop-opacity="1" stop-color="rgb(58.352661%, 93.93158%, 40.79895%)" offset="0.433594"/><stop stop-opacity="1" stop-color="rgb(58.557129%, 93.977356%, 40.673828%)" offset="0.4375"/><stop stop-opacity="1" stop-color="rgb(58.761597%, 94.021606%, 40.54718%)" offset="0.441406"/><stop stop-opacity="1" stop-color="rgb(58.966064%, 94.065857%, 40.422058%)" offset="0.445313"/><stop stop-opacity="1" stop-color="rgb(59.169006%, 94.110107%, 40.29541%)" offset="0.449219"/><stop stop-opacity="1" stop-color="rgb(59.373474%, 94.154358%, 40.170288%)" offset="0.453125"/><stop stop-opacity="1" stop-color="rgb(59.577942%, 94.198608%, 40.04364%)" offset="0.457031"/><stop stop-opacity="1" stop-color="rgb(59.78241%, 94.244385%, 39.918518%)" offset="0.460938"/><stop stop-opacity="1" stop-color="rgb(59.985352%, 94.288635%, 39.79187%)" offset="0.464844"/><stop stop-opacity="1" stop-color="rgb(60.189819%, 94.332886%, 39.666748%)" offset="0.46875"/><stop stop-opacity="1" stop-color="rgb(60.394287%, 94.377136%, 39.5401%)" offset="0.472656"/><stop stop-opacity="1" stop-color="rgb(60.598755%, 94.422913%, 39.414978%)" offset="0.476563"/><stop stop-opacity="1" stop-color="rgb(60.801697%, 94.467163%, 39.289856%)" offset="0.480469"/><stop stop-opacity="1" stop-color="rgb(61.006165%, 94.511414%, 39.164734%)" offset="0.484375"/><stop stop-opacity="1" stop-color="rgb(61.209106%, 94.555664%, 39.038086%)" offset="0.488281"/><stop stop-opacity="1" stop-color="rgb(61.413574%, 94.60144%, 38.912964%)" offset="0.492187"/><stop stop-opacity="1" stop-color="rgb(61.618042%, 94.645691%, 38.786316%)" offset="0.496094"/><stop stop-opacity="1" stop-color="rgb(61.82251%, 94.689941%, 38.661194%)" offset="0.5"/><stop stop-opacity="1" stop-color="rgb(62.025452%, 94.734192%, 38.534546%)" offset="0.503906"/><stop stop-opacity="1" stop-color="rgb(62.229919%, 94.778442%, 38.409424%)" offset="0.507812"/><stop stop-opacity="1" stop-color="rgb(62.434387%, 94.822693%, 38.282776%)" offset="0.511719"/><stop stop-opacity="1" stop-color="rgb(62.638855%, 94.868469%, 38.157654%)" offset="0.515625"/><stop stop-opacity="1" stop-color="rgb(62.841797%, 94.91272%, 38.031006%)" offset="0.519531"/><stop stop-opacity="1" stop-color="rgb(63.046265%, 94.95697%, 37.905884%)" offset="0.523438"/><stop stop-opacity="1" stop-color="rgb(63.250732%, 95.001221%, 37.780762%)" offset="0.527344"/><stop stop-opacity="1" stop-color="rgb(63.4552%, 95.046997%, 37.65564%)" offset="0.53125"/><stop stop-opacity="1" stop-color="rgb(63.658142%, 95.091248%, 37.528992%)" offset="0.535156"/><stop stop-opacity="1" stop-color="rgb(63.86261%, 95.135498%, 37.40387%)" offset="0.539062"/><stop stop-opacity="1" stop-color="rgb(64.067078%, 95.179749%, 37.277222%)" offset="0.542969"/><stop stop-opacity="1" stop-color="rgb(64.271545%, 95.225525%, 37.1521%)" offset="0.546875"/><stop stop-opacity="1" stop-color="rgb(64.474487%, 95.269775%, 37.025452%)" offset="0.550781"/><stop stop-opacity="1" stop-color="rgb(64.678955%, 95.314026%, 36.90033%)" offset="0.554688"/><stop stop-opacity="1" stop-color="rgb(64.883423%, 95.358276%, 36.773682%)" offset="0.558594"/><stop stop-opacity="1" stop-color="rgb(65.087891%, 95.404053%, 36.64856%)" offset="0.5625"/><stop stop-opacity="1" stop-color="rgb(65.290833%, 95.448303%, 36.521912%)" offset="0.566406"/><stop stop-opacity="1" stop-color="rgb(65.4953%, 95.492554%, 36.39679%)" offset="0.570312"/><stop stop-opacity="1" stop-color="rgb(65.699768%, 95.536804%, 36.271667%)" offset="0.574219"/><stop stop-opacity="1" stop-color="rgb(65.904236%, 95.581055%, 36.146545%)" offset="0.578125"/><stop stop-opacity="1" stop-color="rgb(66.107178%, 95.625305%, 36.019897%)" offset="0.582031"/><stop stop-opacity="1" stop-color="rgb(66.311646%, 95.671082%, 35.894775%)" offset="0.585937"/><stop stop-opacity="1" stop-color="rgb(66.516113%, 95.715332%, 35.768127%)" offset="0.589844"/><stop stop-opacity="1" stop-color="rgb(66.720581%, 95.759583%, 35.643005%)" offset="0.59375"/><stop stop-opacity="1" stop-color="rgb(66.923523%, 95.803833%, 35.516357%)" offset="0.597656"/><stop stop-opacity="1" stop-color="rgb(67.127991%, 95.849609%, 35.391235%)" offset="0.601562"/><stop stop-opacity="1" stop-color="rgb(67.332458%, 95.89386%, 35.264587%)" offset="0.605469"/><stop stop-opacity="1" stop-color="rgb(67.536926%, 95.93811%, 35.139465%)" offset="0.609375"/><stop stop-opacity="1" stop-color="rgb(67.739868%, 95.982361%, 35.012817%)" offset="0.613281"/><stop stop-opacity="1" stop-color="rgb(67.944336%, 96.028137%, 34.887695%)" offset="0.617187"/><stop stop-opacity="1" stop-color="rgb(68.148804%, 96.072388%, 34.762573%)" offset="0.621094"/><stop stop-opacity="1" stop-color="rgb(68.353271%, 96.116638%, 34.637451%)" offset="0.625"/><stop stop-opacity="1" stop-color="rgb(68.556213%, 96.160889%, 34.510803%)" offset="0.628906"/><stop stop-opacity="1" stop-color="rgb(68.760681%, 96.206665%, 34.385681%)" offset="0.632812"/><stop stop-opacity="1" stop-color="rgb(68.965149%, 96.250916%, 34.259033%)" offset="0.636719"/><stop stop-opacity="1" stop-color="rgb(69.169617%, 96.295166%, 34.133911%)" offset="0.640625"/><stop stop-opacity="1" stop-color="rgb(69.372559%, 96.339417%, 34.007263%)" offset="0.644531"/><stop stop-opacity="1" stop-color="rgb(69.577026%, 96.383667%, 33.882141%)" offset="0.648437"/><stop stop-opacity="1" stop-color="rgb(69.781494%, 96.427917%, 33.755493%)" offset="0.652344"/><stop stop-opacity="1" stop-color="rgb(69.985962%, 96.473694%, 33.630371%)" offset="0.65625"/><stop stop-opacity="1" stop-color="rgb(70.188904%, 96.517944%, 33.503723%)" offset="0.660156"/><stop stop-opacity="1" stop-color="rgb(70.393372%, 96.562195%, 33.378601%)" offset="0.664062"/><stop stop-opacity="1" stop-color="rgb(70.596313%, 96.606445%, 33.253479%)" offset="0.667969"/><stop stop-opacity="1" stop-color="rgb(70.800781%, 96.652222%, 33.128357%)" offset="0.671875"/><stop stop-opacity="1" stop-color="rgb(71.005249%, 96.696472%, 33.001709%)" offset="0.675781"/><stop stop-opacity="1" stop-color="rgb(71.209717%, 96.740723%, 32.876587%)" offset="0.679687"/><stop stop-opacity="1" stop-color="rgb(71.412659%, 96.784973%, 32.749939%)" offset="0.683594"/><stop stop-opacity="1" stop-color="rgb(71.617126%, 96.83075%, 32.624817%)" offset="0.6875"/><stop stop-opacity="1" stop-color="rgb(71.821594%, 96.875%, 32.498169%)" offset="0.691406"/><stop stop-opacity="1" stop-color="rgb(72.026062%, 96.91925%, 32.373047%)" offset="0.695312"/><stop stop-opacity="1" stop-color="rgb(72.229004%, 96.963501%, 32.246399%)" offset="0.699219"/><stop stop-opacity="1" stop-color="rgb(72.433472%, 97.009277%, 32.121277%)" offset="0.703125"/><stop stop-opacity="1" stop-color="rgb(72.637939%, 97.053528%, 31.994629%)" offset="0.707031"/><stop stop-opacity="1" stop-color="rgb(72.842407%, 97.097778%, 31.869507%)" offset="0.710937"/><stop stop-opacity="1" stop-color="rgb(73.045349%, 97.142029%, 31.744385%)" offset="0.714844"/><stop stop-opacity="1" stop-color="rgb(73.249817%, 97.186279%, 31.619263%)" offset="0.71875"/><stop stop-opacity="1" stop-color="rgb(73.454285%, 97.23053%, 31.492615%)" offset="0.722656"/><stop stop-opacity="1" stop-color="rgb(73.658752%, 97.276306%, 31.367493%)" offset="0.726562"/><stop stop-opacity="1" stop-color="rgb(73.861694%, 97.320557%, 31.240845%)" offset="0.730469"/><stop stop-opacity="1" stop-color="rgb(74.066162%, 97.364807%, 31.115723%)" offset="0.734375"/><stop stop-opacity="1" stop-color="rgb(74.27063%, 97.409058%, 30.989075%)" offset="0.738281"/><stop stop-opacity="1" stop-color="rgb(74.475098%, 97.454834%, 30.863953%)" offset="0.742188"/><stop stop-opacity="1" stop-color="rgb(74.67804%, 97.499084%, 30.737305%)" offset="0.746094"/><stop stop-opacity="1" stop-color="rgb(74.882507%, 97.543335%, 30.612183%)" offset="0.75"/><stop stop-opacity="1" stop-color="rgb(75.086975%, 97.587585%, 30.487061%)" offset="0.753906"/><stop stop-opacity="1" stop-color="rgb(75.291443%, 97.633362%, 30.361938%)" offset="0.757812"/><stop stop-opacity="1" stop-color="rgb(75.494385%, 97.677612%, 30.235291%)" offset="0.761719"/><stop stop-opacity="1" stop-color="rgb(75.698853%, 97.721863%, 30.110168%)" offset="0.765625"/><stop stop-opacity="1" stop-color="rgb(75.90332%, 97.766113%, 29.983521%)" offset="0.769531"/><stop stop-opacity="1" stop-color="rgb(76.107788%, 97.810364%, 29.858398%)" offset="0.773438"/><stop stop-opacity="1" stop-color="rgb(76.31073%, 97.854614%, 29.73175%)" offset="0.777344"/><stop stop-opacity="1" stop-color="rgb(76.515198%, 97.900391%, 29.606628%)" offset="0.78125"/><stop stop-opacity="1" stop-color="rgb(76.719666%, 97.944641%, 29.47998%)" offset="0.785156"/><stop stop-opacity="1" stop-color="rgb(76.924133%, 97.988892%, 29.354858%)" offset="0.789063"/><stop stop-opacity="1" stop-color="rgb(77.127075%, 98.033142%, 29.22821%)" offset="0.792969"/><stop stop-opacity="1" stop-color="rgb(77.331543%, 98.078918%, 29.103088%)" offset="0.796875"/><stop stop-opacity="1" stop-color="rgb(77.536011%, 98.123169%, 28.977966%)" offset="0.800781"/><stop stop-opacity="1" stop-color="rgb(77.740479%, 98.167419%, 28.852844%)" offset="0.804688"/><stop stop-opacity="1" stop-color="rgb(77.94342%, 98.21167%, 28.726196%)" offset="0.808594"/><stop stop-opacity="1" stop-color="rgb(78.147888%, 98.257446%, 28.601074%)" offset="0.8125"/><stop stop-opacity="1" stop-color="rgb(78.352356%, 98.301697%, 28.474426%)" offset="0.816406"/><stop stop-opacity="1" stop-color="rgb(78.556824%, 98.345947%, 28.349304%)" offset="0.820313"/><stop stop-opacity="1" stop-color="rgb(78.677368%, 98.371887%, 28.274536%)" offset="0.828125"/><stop stop-opacity="1" stop-color="rgb(78.799438%, 98.399353%, 28.199768%)" offset="0.84375"/><stop stop-opacity="1" stop-color="rgb(78.799438%, 98.399353%, 28.199768%)" offset="0.875"/><stop stop-opacity="1" stop-color="rgb(78.799438%, 98.399353%, 28.199768%)" offset="1"/></linearGradient></defs><g clip-path="url(#id1)"><g clip-path="url(#id2)"><path fill="url(#id3)" d="M 356.972656 128.453125 L 331.699219 92.710938 L 292.375 120.597656 L 317.648438 156.335938 Z M 356.972656 128.453125 " fill-rule="nonzero"/></g></g><g clip-path="url(#id4)"><g clip-path="url(#id5)"><path fill="url(#id6)" d="M 476.867188 220.269531 L 386.882812 93.03125 L 254.679688 186.777344 L 344.664062 314.015625 Z M 476.867188 220.269531 " fill-rule="nonzero"/></g></g><g clip-path="url(#id7)"><g clip-path="url(#id8)"><path fill="url(#id9)" d="M 548.402344 207.203125 L 387.113281 -20.867188 L 161.351562 139.21875 L 322.640625 367.285156 Z M 548.402344 207.203125 " fill-rule="nonzero"/></g></g><g fill="#fad02c" fill-opacity="1"><g transform="translate(46.103561, 211.576343)"><g><path d="M 53.015625 -6.992188 C 52.324219 -20.054688 51.558594 -33.886719 50.636719 -49.328125 C 50.480469 -51.632812 50.175781 -53.710938 49.714844 -55.628906 C 49.328125 -57.242188 48.101562 -58.242188 46.410156 -58.394531 C 44.257812 -58.703125 43.027344 -57.398438 42.414062 -56.246094 C 41.953125 -55.324219 41.570312 -54.246094 41.414062 -53.171875 C 41.109375 -50.941406 40.953125 -48.714844 40.800781 -46.71875 C 40.648438 -44.335938 40.570312 -42.03125 40.417969 -39.648438 L 40.1875 -35.574219 L 14.0625 -35.574219 L 13.832031 -38.800781 C 13.753906 -40.03125 13.675781 -41.261719 13.523438 -42.566406 C 13.371094 -45.410156 13.214844 -48.332031 12.832031 -51.171875 C 12.523438 -53.863281 10.910156 -55.554688 8.605469 -55.707031 C 6.300781 -55.859375 4.457031 -54.171875 3.84375 -51.480469 C 3.378906 -48.945312 2.6875 -45.792969 2.84375 -42.875 C 3.304688 -31.195312 3.996094 -18.59375 4.996094 -3.148438 C 5.148438 -0.152344 6.992188 1.921875 9.527344 1.921875 C 9.605469 1.921875 9.605469 1.921875 9.605469 1.921875 C 12.140625 1.84375 13.832031 -0.152344 14.136719 -3.378906 C 14.214844 -4.304688 14.214844 -5.378906 14.214844 -6.300781 L 14.214844 -6.609375 C 14.214844 -9.679688 14.136719 -12.832031 14.136719 -15.980469 L 14.0625 -21.285156 C 14.0625 -21.898438 14.0625 -22.511719 14.0625 -23.28125 L 14.0625 -25.203125 L 40.339844 -25.203125 L 40.261719 -23.359375 C 40.261719 -22.667969 40.261719 -21.976562 40.339844 -21.285156 C 40.339844 -19.902344 40.417969 -18.519531 40.417969 -17.132812 C 40.570312 -13.371094 40.722656 -9.449219 41.03125 -5.609375 C 41.183594 -3.84375 41.800781 -1.84375 42.796875 0 C 43.875 2.074219 45.71875 3.074219 48.101562 2.765625 C 50.40625 2.457031 52.019531 1.074219 52.554688 -1.152344 C 52.941406 -2.84375 53.09375 -4.839844 53.015625 -6.992188 Z M 53.015625 -6.992188 "/></g></g></g><g fill="#fad02c" fill-opacity="1"><g transform="translate(101.951458, 211.576343)"><g><path d="M 39.496094 -15.367188 C 38.339844 -20.667969 37.496094 -26.125 36.34375 -31.503906 C 35.960938 -33.195312 35.5 -35.421875 34.269531 -36.421875 C 30.582031 -39.261719 26.507812 -41.722656 21.359375 -40.878906 C 12.371094 -39.261719 3.613281 -29.429688 2.84375 -19.824219 C 2.152344 -10.988281 9.21875 -4.839844 17.980469 -6.914062 C 20.285156 -7.53125 22.4375 -8.835938 24.585938 -9.910156 C 25.355469 -10.296875 25.972656 -10.910156 26.738281 -11.449219 C 27.125 -10.910156 27.429688 -10.601562 27.660156 -10.21875 C 30.195312 -6.378906 33.5 -4.917969 36.574219 -6.222656 C 39.570312 -7.53125 40.492188 -10.757812 39.496094 -15.367188 Z M 17.210938 -18.058594 C 16.367188 -17.75 15.136719 -17.671875 14.367188 -18.058594 C 13.90625 -18.289062 13.90625 -19.902344 14.214844 -20.667969 C 15.90625 -25.433594 18.59375 -29.273438 23.742188 -31.425781 C 24.664062 -25.511719 21.898438 -19.902344 17.210938 -18.058594 Z M 17.210938 -18.058594 "/></g></g></g><g fill="#fad02c" fill-opacity="1"><g transform="translate(144.740002, 211.576343)"><g><path d="M 13.832031 -49.023438 C 13.675781 -51.019531 13.523438 -53.171875 12.601562 -54.863281 C 11.988281 -56.089844 10.21875 -57.472656 8.914062 -57.472656 C 7.605469 -57.472656 6.070312 -56.089844 5.070312 -54.9375 C 4.378906 -54.015625 4.148438 -52.554688 3.996094 -51.25 C 3.304688 -43.644531 2.6875 -19.363281 2.84375 -14.90625 C 2.84375 -12.984375 3.148438 -11.066406 3.613281 -9.21875 C 4.457031 -6.300781 6.53125 -4.609375 8.914062 -4.535156 C 11.296875 -4.457031 13.675781 -5.992188 14.445312 -8.914062 C 15.214844 -12.21875 15.828125 -15.597656 15.675781 -18.980469 C 15.289062 -28.96875 14.523438 -39.03125 13.832031 -49.023438 Z M 13.832031 -49.023438 "/></g></g></g><g fill="#fad02c" fill-opacity="1"><g transform="translate(163.33036, 211.576343)"><g><path d="M 39.496094 -15.367188 C 38.339844 -20.667969 37.496094 -26.125 36.34375 -31.503906 C 35.960938 -33.195312 35.5 -35.421875 34.269531 -36.421875 C 30.582031 -39.261719 26.507812 -41.722656 21.359375 -40.878906 C 12.371094 -39.261719 3.613281 -29.429688 2.84375 -19.824219 C 2.152344 -10.988281 9.21875 -4.839844 17.980469 -6.914062 C 20.285156 -7.53125 22.4375 -8.835938 24.585938 -9.910156 C 25.355469 -10.296875 25.972656 -10.910156 26.738281 -11.449219 C 27.125 -10.910156 27.429688 -10.601562 27.660156 -10.21875 C 30.195312 -6.378906 33.5 -4.917969 36.574219 -6.222656 C 39.570312 -7.53125 40.492188 -10.757812 39.496094 -15.367188 Z M 17.210938 -18.058594 C 16.367188 -17.75 15.136719 -17.671875 14.367188 -18.058594 C 13.90625 -18.289062 13.90625 -19.902344 14.214844 -20.667969 C 15.90625 -25.433594 18.59375 -29.273438 23.742188 -31.425781 C 24.664062 -25.511719 21.898438 -19.902344 17.210938 -18.058594 Z M 17.210938 -18.058594 "/></g></g></g><g fill="#fad02c" fill-opacity="1"><g transform="translate(206.118904, 211.576343)"><g><path d="M 13.832031 -49.023438 C 13.675781 -51.019531 13.523438 -53.171875 12.601562 -54.863281 C 11.988281 -56.089844 10.21875 -57.472656 8.914062 -57.472656 C 7.605469 -57.472656 6.070312 -56.089844 5.070312 -54.9375 C 4.378906 -54.015625 4.148438 -52.554688 3.996094 -51.25 C 3.304688 -43.644531 2.6875 -19.363281 2.84375 -14.90625 C 2.84375 -12.984375 3.148438 -11.066406 3.613281 -9.21875 C 4.457031 -6.300781 6.53125 -4.609375 8.914062 -4.535156 C 11.296875 -4.457031 13.675781 -5.992188 14.445312 -8.914062 C 15.214844 -12.21875 15.828125 -15.597656 15.675781 -18.980469 C 15.289062 -28.96875 14.523438 -39.03125 13.832031 -49.023438 Z M 13.832031 -49.023438 "/></g></g></g><g fill="#fad02c" fill-opacity="1"><g transform="translate(224.709263, 211.576343)"><g><path d="M 39.496094 -15.367188 C 38.339844 -20.667969 37.496094 -26.125 36.34375 -31.503906 C 35.960938 -33.195312 35.5 -35.421875 34.269531 -36.421875 C 30.582031 -39.261719 26.507812 -41.722656 21.359375 -40.878906 C 12.371094 -39.261719 3.613281 -29.429688 2.84375 -19.824219 C 2.152344 -10.988281 9.21875 -4.839844 17.980469 -6.914062 C 20.285156 -7.53125 22.4375 -8.835938 24.585938 -9.910156 C 25.355469 -10.296875 25.972656 -10.910156 26.738281 -11.449219 C 27.125 -10.910156 27.429688 -10.601562 27.660156 -10.21875 C 30.195312 -6.378906 33.5 -4.917969 36.574219 -6.222656 C 39.570312 -7.53125 40.492188 -10.757812 39.496094 -15.367188 Z M 17.210938 -18.058594 C 16.367188 -17.75 15.136719 -17.671875 14.367188 -18.058594 C 13.90625 -18.289062 13.90625 -19.902344 14.214844 -20.667969 C 15.90625 -25.433594 18.59375 -29.273438 23.742188 -31.425781 C 24.664062 -25.511719 21.898438 -19.902344 17.210938 -18.058594 Z M 17.210938 -18.058594 "/></g></g></g><g fill="#fad02c" fill-opacity="1"><g transform="translate(267.497807, 211.576343)"><g/></g></g><g fill="#fad02c" fill-opacity="1"><g transform="translate(289.545046, 211.576343)"><g><path d="M 35.421875 -33.195312 C 31.117188 -38.957031 24.433594 -39.878906 18.59375 -35.730469 C 16.902344 -34.5 15.367188 -33.039062 13.601562 -31.503906 C 13.292969 -32.117188 13.140625 -32.503906 12.984375 -32.964844 C 12.292969 -35.34375 11.21875 -37.574219 8.296875 -37.496094 C 5.226562 -37.34375 4.304688 -34.808594 4.074219 -32.347656 C 3.535156 -25.28125 2.996094 -18.210938 2.84375 -11.140625 C 2.6875 -7.222656 5.300781 -4.535156 8.683594 -4.148438 C 12.0625 -3.765625 14.984375 -5.917969 15.90625 -9.835938 C 17.132812 -15.289062 20.132812 -19.824219 23.511719 -24.125 C 24.050781 -24.816406 24.816406 -25.28125 25.894531 -26.277344 C 26.277344 -24.28125 26.507812 -22.972656 26.664062 -21.589844 C 27.199219 -17.980469 27.429688 -14.214844 28.351562 -10.601562 C 29.121094 -7.53125 31.734375 -5.992188 34.421875 -6.070312 C 36.882812 -6.222656 39.261719 -8.066406 39.726562 -11.140625 C 40.953125 -18.980469 40.261719 -26.585938 35.421875 -33.195312 Z M 35.421875 -33.195312 "/></g></g></g><g fill="#7ed957" fill-opacity="1"><g transform="translate(332.714954, 211.576343)"><g><path d="M 19.59375 -56.167969 C 13.675781 -53.785156 9.605469 -49.484375 7.992188 -42.953125 C 7.144531 -39.726562 6.914062 -36.421875 6.609375 -33.117188 C 6.453125 -31.503906 6.222656 -30.425781 4.839844 -29.503906 C 2.074219 -27.738281 2.074219 -23.742188 4.996094 -22.28125 C 7.453125 -21.054688 7.992188 -19.210938 8.222656 -16.75 C 8.296875 -15.058594 8.375 -13.214844 8.988281 -11.601562 C 10.21875 -8.144531 11.679688 -4.765625 13.371094 -1.535156 C 13.832031 -0.613281 15.675781 0.230469 16.597656 0 C 17.671875 -0.308594 18.671875 -1.765625 19.285156 -2.917969 C 19.746094 -3.84375 19.671875 -5.148438 19.671875 -6.300781 C 19.59375 -10.21875 19.59375 -14.136719 19.363281 -18.058594 C 19.285156 -19.824219 19.746094 -20.363281 21.359375 -20.4375 C 23.433594 -20.59375 25.511719 -20.746094 27.429688 -21.285156 C 30.503906 -22.050781 32.273438 -24.664062 31.886719 -27.585938 C 31.578125 -30.351562 29.351562 -32.273438 26.277344 -32.425781 C 25.585938 -32.503906 24.816406 -32.425781 24.125 -32.347656 C 18.671875 -31.886719 18.824219 -30.65625 19.210938 -37.878906 C 19.285156 -38.265625 19.363281 -38.570312 19.441406 -38.878906 C 20.363281 -43.027344 22.589844 -44.949219 26.585938 -44.949219 C 27.890625 -45.027344 29.199219 -45.027344 30.503906 -45.101562 C 32.347656 -45.179688 34.039062 -45.640625 34.652344 -47.640625 C 35.421875 -49.789062 34.578125 -51.632812 33.039062 -53.015625 C 30.351562 -55.628906 26.96875 -56.628906 23.050781 -57.089844 C 22.050781 -56.859375 20.746094 -56.628906 19.59375 -56.167969 Z M 19.59375 -56.167969 "/></g></g></g><g fill="#7ed957" fill-opacity="1"><g transform="translate(370.663861, 211.576343)"><g><path d="M 32.039062 -13.292969 C 31.117188 -15.675781 29.121094 -16.441406 26.738281 -16.210938 C 25.511719 -16.136719 24.28125 -15.828125 23.128906 -15.675781 C 21.207031 -15.445312 19.671875 -16.210938 19.363281 -18.132812 C 18.824219 -21.207031 18.59375 -24.28125 18.210938 -27.429688 C 20.976562 -27.429688 23.128906 -27.277344 25.203125 -27.429688 C 28.046875 -27.660156 30.195312 -29.8125 30.425781 -32.425781 C 30.65625 -35.039062 28.890625 -37.496094 26.046875 -38.1875 C 24.28125 -38.648438 22.4375 -38.800781 20.667969 -38.800781 C 19.054688 -38.878906 18.519531 -39.496094 18.519531 -41.109375 C 18.519531 -43.257812 18.441406 -45.488281 18.132812 -47.640625 C 17.75 -50.789062 16.289062 -52.324219 14.214844 -52.402344 C 12.0625 -52.402344 10.679688 -50.867188 10.066406 -47.714844 C 9.757812 -45.949219 9.375 -44.105469 9.296875 -42.335938 C 9.144531 -40.261719 8.222656 -39.417969 6.378906 -38.648438 C 4.917969 -38.035156 3.457031 -36.34375 2.996094 -34.882812 C 2.304688 -32.808594 3.84375 -31.195312 5.761719 -30.425781 C 7.300781 -29.8125 7.605469 -28.890625 7.605469 -27.429688 C 7.605469 -24.28125 7.761719 -21.128906 8.066406 -17.980469 C 8.527344 -13.523438 10.601562 -9.910156 14.214844 -7.144531 C 18.671875 -3.765625 26.507812 -3.84375 30.351562 -7.453125 C 32.039062 -9.066406 32.964844 -10.988281 32.039062 -13.292969 Z M 32.039062 -13.292969 "/></g></g></g><g fill="#7ed957" fill-opacity="1"><g transform="translate(452.095491, 183.170283)"><g><path d="M 2.71875 0 L 2.71875 -24.21875 L 19.34375 -24.21875 L 19.328125 -20.09375 L 7.625 -20.09375 L 7.625 -14.21875 L 17.78125 -14.21875 L 17.78125 -10.1875 L 7.59375 -10.1875 L 7.59375 -4.171875 L 19.515625 -4.15625 L 19.515625 0 Z M 2.71875 0 "/></g></g></g><g fill="#7ed957" fill-opacity="1"><g transform="translate(473.346558, 183.170283)"><g><path d="M 12.640625 -13.921875 L 8.796875 -13.921875 L 8.828125 -4.6875 C 8.828125 -4.257812 8.878906 -3.941406 8.984375 -3.734375 C 9.085938 -3.535156 9.253906 -3.40625 9.484375 -3.34375 C 9.710938 -3.28125 10.007812 -3.25 10.375 -3.25 L 12.703125 -3.25 L 12.703125 -0.234375 C 12.472656 -0.128906 12.117188 -0.0351562 11.640625 0.046875 C 11.171875 0.140625 10.515625 0.1875 9.671875 0.1875 C 8.148438 0.1875 6.972656 -0.00390625 6.140625 -0.390625 C 5.304688 -0.785156 4.726562 -1.332031 4.40625 -2.03125 C 4.082031 -2.738281 3.921875 -3.554688 3.921875 -4.484375 L 3.921875 -13.921875 L 1.109375 -13.921875 L 1.109375 -17.3125 L 4.09375 -17.3125 L 5.3125 -22.546875 L 8.796875 -22.546875 L 8.796875 -17.34375 L 12.640625 -17.34375 Z M 12.640625 -13.921875 "/></g></g></g><g fill="#7ed957" fill-opacity="1"><g transform="translate(487.497186, 183.170283)"><g><path d="M 2.09375 0 L 2.09375 -24.890625 L 6.953125 -24.890625 L 6.953125 -14.828125 C 7.234375 -15.222656 7.582031 -15.617188 8 -16.015625 C 8.425781 -16.410156 8.957031 -16.742188 9.59375 -17.015625 C 10.226562 -17.285156 11.003906 -17.421875 11.921875 -17.421875 C 13.023438 -17.421875 14.03125 -17.203125 14.9375 -16.765625 C 15.851562 -16.335938 16.585938 -15.71875 17.140625 -14.90625 C 17.691406 -14.09375 17.96875 -13.097656 17.96875 -11.921875 L 17.96875 0 L 13.0625 0 L 13.0625 -11.203125 C 13.0625 -11.984375 12.78125 -12.582031 12.21875 -13 C 11.65625 -13.425781 10.972656 -13.640625 10.171875 -13.640625 C 9.640625 -13.640625 9.128906 -13.539062 8.640625 -13.34375 C 8.148438 -13.15625 7.75 -12.867188 7.4375 -12.484375 C 7.132812 -12.097656 6.984375 -11.625 6.984375 -11.0625 L 6.984375 0 Z M 2.09375 0 "/></g></g></g><g fill="#7ed957" fill-opacity="1"><g transform="translate(507.341567, 183.170283)"><g><path d="M 7.015625 -17.3125 L 7.015625 0 L 2.34375 0 L 2.34375 -17.3125 Z M 7.0625 -24.203125 L 7.0625 -19.796875 L 2.3125 -19.796875 L 2.3125 -24.203125 Z M 7.0625 -24.203125 "/></g></g></g><g fill="#7ed957" fill-opacity="1"><g transform="translate(516.702757, 183.170283)"><g><path d="M 9.515625 -17.65625 C 10.960938 -17.65625 12.210938 -17.359375 13.265625 -16.765625 C 14.328125 -16.171875 15.160156 -15.367188 15.765625 -14.359375 C 16.378906 -13.359375 16.726562 -12.238281 16.8125 -11 L 12.75 -11 C 12.664062 -11.457031 12.5 -11.910156 12.25 -12.359375 C 12.007812 -12.816406 11.664062 -13.191406 11.21875 -13.484375 C 10.769531 -13.785156 10.210938 -13.9375 9.546875 -13.9375 C 8.410156 -13.9375 7.488281 -13.5 6.78125 -12.625 C 6.070312 -11.75 5.71875 -10.414062 5.71875 -8.625 C 5.71875 -6.9375 6.0625 -5.597656 6.75 -4.609375 C 7.4375 -3.617188 8.398438 -3.125 9.640625 -3.125 C 10.304688 -3.125 10.859375 -3.285156 11.296875 -3.609375 C 11.734375 -3.941406 12.078125 -4.332031 12.328125 -4.78125 C 12.578125 -5.226562 12.734375 -5.648438 12.796875 -6.046875 L 16.765625 -6.046875 C 16.691406 -4.847656 16.347656 -3.765625 15.734375 -2.796875 C 15.117188 -1.835938 14.28125 -1.078125 13.21875 -0.515625 C 12.164062 0.046875 10.929688 0.328125 9.515625 0.328125 C 7.910156 0.328125 6.472656 -0.0234375 5.203125 -0.734375 C 3.941406 -1.453125 2.953125 -2.476562 2.234375 -3.8125 C 1.515625 -5.144531 1.15625 -6.738281 1.15625 -8.59375 C 1.15625 -10.375 1.5 -11.945312 2.1875 -13.3125 C 2.882812 -14.675781 3.859375 -15.738281 5.109375 -16.5 C 6.367188 -17.269531 7.835938 -17.65625 9.515625 -17.65625 Z M 9.515625 -17.65625 "/></g></g></g><g fill="#7ed957" fill-opacity="1"><g transform="translate(534.78877, 183.170283)"><g><path d="M 7.125 0.328125 C 6.007812 0.328125 5.007812 0.125 4.125 -0.28125 C 3.25 -0.695312 2.550781 -1.296875 2.03125 -2.078125 C 1.519531 -2.867188 1.265625 -3.828125 1.265625 -4.953125 C 1.265625 -6.859375 1.972656 -8.300781 3.390625 -9.28125 C 4.816406 -10.269531 7.054688 -10.785156 10.109375 -10.828125 L 12.28125 -10.859375 L 12.28125 -11.890625 C 12.28125 -12.679688 12.046875 -13.289062 11.578125 -13.71875 C 11.117188 -14.15625 10.40625 -14.367188 9.4375 -14.359375 C 8.71875 -14.347656 8.035156 -14.175781 7.390625 -13.84375 C 6.753906 -13.519531 6.316406 -12.957031 6.078125 -12.15625 L 2.015625 -12.15625 C 2.078125 -13.40625 2.4375 -14.4375 3.09375 -15.25 C 3.757812 -16.0625 4.65625 -16.664062 5.78125 -17.0625 C 6.914062 -17.457031 8.203125 -17.65625 9.640625 -17.65625 C 11.421875 -17.65625 12.847656 -17.429688 13.921875 -16.984375 C 14.992188 -16.546875 15.769531 -15.914062 16.25 -15.09375 C 16.726562 -14.28125 16.96875 -13.304688 16.96875 -12.171875 L 16.96875 0 L 12.875 0 L 12.484375 -2.984375 C 11.890625 -1.734375 11.144531 -0.867188 10.25 -0.390625 C 9.363281 0.0859375 8.320312 0.328125 7.125 0.328125 Z M 8.765625 -2.875 C 9.210938 -2.875 9.644531 -2.953125 10.0625 -3.109375 C 10.476562 -3.273438 10.847656 -3.492188 11.171875 -3.765625 C 11.503906 -4.046875 11.769531 -4.359375 11.96875 -4.703125 C 12.175781 -5.046875 12.28125 -5.40625 12.28125 -5.78125 L 12.28125 -8.34375 L 10.515625 -8.3125 C 9.703125 -8.300781 8.941406 -8.203125 8.234375 -8.015625 C 7.535156 -7.828125 6.96875 -7.523438 6.53125 -7.109375 C 6.101562 -6.703125 5.890625 -6.144531 5.890625 -5.4375 C 5.890625 -4.632812 6.171875 -4.003906 6.734375 -3.546875 C 7.296875 -3.097656 7.972656 -2.875 8.765625 -2.875 Z M 8.765625 -2.875 "/></g></g></g><g fill="#7ed957" fill-opacity="1"><g transform="translate(553.996783, 183.170283)"><g><path d="M 7.625 0.296875 C 6.351562 0.296875 5.34375 0.144531 4.59375 -0.15625 C 3.84375 -0.457031 3.285156 -0.851562 2.921875 -1.34375 C 2.566406 -1.84375 2.335938 -2.394531 2.234375 -3 C 2.140625 -3.613281 2.09375 -4.234375 2.09375 -4.859375 L 2.09375 -24.890625 L 6.890625 -24.890625 L 6.890625 -5.453125 C 6.890625 -4.816406 7.023438 -4.300781 7.296875 -3.90625 C 7.566406 -3.507812 8.082031 -3.269531 8.84375 -3.1875 L 9.671875 -3.125 L 9.671875 -0.125 C 9.328125 -0.0078125 8.984375 0.0859375 8.640625 0.171875 C 8.296875 0.253906 7.957031 0.296875 7.625 0.296875 Z M 7.625 0.296875 "/></g></g></g><g fill="#7ed957" fill-opacity="1"><g transform="translate(564.881882, 183.170283)"><g/></g></g><g fill="#7ed957" fill-opacity="1"><g transform="translate(571.982321, 183.170283)"><g><path d="M 11.8125 0.328125 C 10.613281 0.328125 9.4375 0.179688 8.28125 -0.109375 C 7.132812 -0.410156 6.085938 -0.863281 5.140625 -1.46875 C 4.191406 -2.070312 3.40625 -2.828125 2.78125 -3.734375 C 2.164062 -4.640625 1.796875 -5.703125 1.671875 -6.921875 L 6.6875 -6.921875 C 6.851562 -6.179688 7.171875 -5.5625 7.640625 -5.0625 C 8.109375 -4.5625 8.695312 -4.175781 9.40625 -3.90625 C 10.125 -3.632812 10.921875 -3.5 11.796875 -3.5 C 12.679688 -3.5 13.492188 -3.609375 14.234375 -3.828125 C 14.972656 -4.054688 15.566406 -4.394531 16.015625 -4.84375 C 16.460938 -5.300781 16.6875 -5.867188 16.6875 -6.546875 C 16.6875 -7.160156 16.503906 -7.660156 16.140625 -8.046875 C 15.773438 -8.441406 15.285156 -8.757812 14.671875 -9 C 14.054688 -9.25 13.359375 -9.453125 12.578125 -9.609375 L 8.390625 -10.46875 C 6.554688 -10.8125 5.101562 -11.539062 4.03125 -12.65625 C 2.957031 -13.769531 2.40625 -15.253906 2.375 -17.109375 C 2.363281 -18.617188 2.769531 -19.929688 3.59375 -21.046875 C 4.414062 -22.160156 5.53125 -23.015625 6.9375 -23.609375 C 8.351562 -24.210938 9.9375 -24.515625 11.6875 -24.515625 C 13.78125 -24.515625 15.535156 -24.1875 16.953125 -23.53125 C 18.378906 -22.882812 19.460938 -22.003906 20.203125 -20.890625 C 20.953125 -19.785156 21.335938 -18.550781 21.359375 -17.1875 L 16.453125 -17.1875 C 16.359375 -18.03125 16.097656 -18.703125 15.671875 -19.203125 C 15.253906 -19.710938 14.710938 -20.078125 14.046875 -20.296875 C 13.378906 -20.523438 12.625 -20.640625 11.78125 -20.640625 C 11.125 -20.640625 10.53125 -20.566406 10 -20.421875 C 9.476562 -20.273438 9.03125 -20.066406 8.65625 -19.796875 C 8.289062 -19.535156 8.003906 -19.226562 7.796875 -18.875 C 7.597656 -18.519531 7.5 -18.117188 7.5 -17.671875 C 7.5 -16.960938 7.734375 -16.390625 8.203125 -15.953125 C 8.671875 -15.523438 9.550781 -15.171875 10.84375 -14.890625 L 14.984375 -14.03125 C 16.472656 -13.738281 17.65625 -13.304688 18.53125 -12.734375 C 19.40625 -12.171875 20.0625 -11.53125 20.5 -10.8125 C 20.945312 -10.101562 21.238281 -9.375 21.375 -8.625 C 21.519531 -7.882812 21.59375 -7.203125 21.59375 -6.578125 C 21.59375 -5.273438 21.179688 -4.097656 20.359375 -3.046875 C 19.535156 -2.003906 18.390625 -1.179688 16.921875 -0.578125 C 15.460938 0.0234375 13.757812 0.328125 11.8125 0.328125 Z M 11.8125 0.328125 "/></g></g></g><g fill="#7ed957" fill-opacity="1"><g transform="translate(595.209454, 183.170283)"><g><path d="M 9.53125 0.328125 C 7.832031 0.328125 6.351562 -0.03125 5.09375 -0.75 C 3.84375 -1.476562 2.875 -2.503906 2.1875 -3.828125 C 1.5 -5.160156 1.15625 -6.738281 1.15625 -8.5625 C 1.15625 -10.382812 1.5 -11.972656 2.1875 -13.328125 C 2.875 -14.691406 3.84375 -15.753906 5.09375 -16.515625 C 6.351562 -17.273438 7.835938 -17.65625 9.546875 -17.65625 C 11.253906 -17.65625 12.734375 -17.28125 13.984375 -16.53125 C 15.234375 -15.789062 16.195312 -14.738281 16.875 -13.375 C 17.5625 -12.019531 17.90625 -10.414062 17.90625 -8.5625 C 17.90625 -6.820312 17.570312 -5.28125 16.90625 -3.9375 C 16.238281 -2.601562 15.28125 -1.554688 14.03125 -0.796875 C 12.789062 -0.046875 11.289062 0.328125 9.53125 0.328125 Z M 9.546875 -3.296875 C 10.410156 -3.296875 11.101562 -3.546875 11.625 -4.046875 C 12.144531 -4.554688 12.523438 -5.21875 12.765625 -6.03125 C 13.003906 -6.851562 13.125 -7.753906 13.125 -8.734375 C 13.125 -9.640625 13.015625 -10.5 12.796875 -11.3125 C 12.585938 -12.132812 12.21875 -12.796875 11.6875 -13.296875 C 11.164062 -13.796875 10.453125 -14.046875 9.546875 -14.046875 C 8.679688 -14.046875 7.984375 -13.804688 7.453125 -13.328125 C 6.929688 -12.859375 6.546875 -12.21875 6.296875 -11.40625 C 6.046875 -10.601562 5.921875 -9.710938 5.921875 -8.734375 C 5.921875 -7.828125 6.03125 -6.957031 6.25 -6.125 C 6.476562 -5.289062 6.851562 -4.609375 7.375 -4.078125 C 7.90625 -3.554688 8.628906 -3.296875 9.546875 -3.296875 Z M 9.546875 -3.296875 "/></g></g></g><g fill="#7ed957" fill-opacity="1"><g transform="translate(614.266756, 183.170283)"><g><path d="M 9.515625 -17.65625 C 10.960938 -17.65625 12.210938 -17.359375 13.265625 -16.765625 C 14.328125 -16.171875 15.160156 -15.367188 15.765625 -14.359375 C 16.378906 -13.359375 16.726562 -12.238281 16.8125 -11 L 12.75 -11 C 12.664062 -11.457031 12.5 -11.910156 12.25 -12.359375 C 12.007812 -12.816406 11.664062 -13.191406 11.21875 -13.484375 C 10.769531 -13.785156 10.210938 -13.9375 9.546875 -13.9375 C 8.410156 -13.9375 7.488281 -13.5 6.78125 -12.625 C 6.070312 -11.75 5.71875 -10.414062 5.71875 -8.625 C 5.71875 -6.9375 6.0625 -5.597656 6.75 -4.609375 C 7.4375 -3.617188 8.398438 -3.125 9.640625 -3.125 C 10.304688 -3.125 10.859375 -3.285156 11.296875 -3.609375 C 11.734375 -3.941406 12.078125 -4.332031 12.328125 -4.78125 C 12.578125 -5.226562 12.734375 -5.648438 12.796875 -6.046875 L 16.765625 -6.046875 C 16.691406 -4.847656 16.347656 -3.765625 15.734375 -2.796875 C 15.117188 -1.835938 14.28125 -1.078125 13.21875 -0.515625 C 12.164062 0.046875 10.929688 0.328125 9.515625 0.328125 C 7.910156 0.328125 6.472656 -0.0234375 5.203125 -0.734375 C 3.941406 -1.453125 2.953125 -2.476562 2.234375 -3.8125 C 1.515625 -5.144531 1.15625 -6.738281 1.15625 -8.59375 C 1.15625 -10.375 1.5 -11.945312 2.1875 -13.3125 C 2.882812 -14.675781 3.859375 -15.738281 5.109375 -16.5 C 6.367188 -17.269531 7.835938 -17.65625 9.515625 -17.65625 Z M 9.515625 -17.65625 "/></g></g></g><g fill="#7ed957" fill-opacity="1"><g transform="translate(632.352768, 183.170283)"><g><path d="M 7.015625 -17.3125 L 7.015625 0 L 2.34375 0 L 2.34375 -17.3125 Z M 7.0625 -24.203125 L 7.0625 -19.796875 L 2.3125 -19.796875 L 2.3125 -24.203125 Z M 7.0625 -24.203125 "/></g></g></g><g fill="#7ed957" fill-opacity="1"><g transform="translate(641.713958, 183.170283)"><g><path d="M 6.109375 -7.53125 C 6.097656 -6.65625 6.238281 -5.890625 6.53125 -5.234375 C 6.820312 -4.578125 7.242188 -4.070312 7.796875 -3.71875 C 8.347656 -3.375 9.015625 -3.203125 9.796875 -3.203125 C 10.640625 -3.203125 11.375 -3.378906 12 -3.734375 C 12.632812 -4.085938 13.070312 -4.675781 13.3125 -5.5 L 17.71875 -5.5 C 17.53125 -4.269531 17.039062 -3.21875 16.25 -2.34375 C 15.46875 -1.46875 14.515625 -0.800781 13.390625 -0.34375 C 12.273438 0.101562 11.117188 0.328125 9.921875 0.328125 C 8.210938 0.328125 6.707031 -0.03125 5.40625 -0.75 C 4.101562 -1.46875 3.085938 -2.484375 2.359375 -3.796875 C 1.628906 -5.117188 1.265625 -6.671875 1.265625 -8.453125 C 1.265625 -10.191406 1.59375 -11.753906 2.25 -13.140625 C 2.914062 -14.523438 3.875 -15.625 5.125 -16.4375 C 6.382812 -17.25 7.898438 -17.65625 9.671875 -17.65625 C 11.429688 -17.65625 12.910156 -17.28125 14.109375 -16.53125 C 15.304688 -15.789062 16.207031 -14.757812 16.8125 -13.4375 C 17.425781 -12.113281 17.734375 -10.585938 17.734375 -8.859375 L 17.734375 -7.53125 Z M 6.09375 -10.453125 L 13.171875 -10.453125 C 13.171875 -11.140625 13.039062 -11.773438 12.78125 -12.359375 C 12.519531 -12.941406 12.128906 -13.398438 11.609375 -13.734375 C 11.097656 -14.066406 10.453125 -14.234375 9.671875 -14.234375 C 8.910156 -14.234375 8.265625 -14.050781 7.734375 -13.6875 C 7.203125 -13.332031 6.796875 -12.863281 6.515625 -12.28125 C 6.234375 -11.695312 6.09375 -11.085938 6.09375 -10.453125 Z M 6.09375 -10.453125 "/></g></g></g><g fill="#7ed957" fill-opacity="1"><g transform="translate(660.75451, 183.170283)"><g><path d="M 12.640625 -13.921875 L 8.796875 -13.921875 L 8.828125 -4.6875 C 8.828125 -4.257812 8.878906 -3.941406 8.984375 -3.734375 C 9.085938 -3.535156 9.253906 -3.40625 9.484375 -3.34375 C 9.710938 -3.28125 10.007812 -3.25 10.375 -3.25 L 12.703125 -3.25 L 12.703125 -0.234375 C 12.472656 -0.128906 12.117188 -0.0351562 11.640625 0.046875 C 11.171875 0.140625 10.515625 0.1875 9.671875 0.1875 C 8.148438 0.1875 6.972656 -0.00390625 6.140625 -0.390625 C 5.304688 -0.785156 4.726562 -1.332031 4.40625 -2.03125 C 4.082031 -2.738281 3.921875 -3.554688 3.921875 -4.484375 L 3.921875 -13.921875 L 1.109375 -13.921875 L 1.109375 -17.3125 L 4.09375 -17.3125 L 5.3125 -22.546875 L 8.796875 -22.546875 L 8.796875 -17.34375 L 12.640625 -17.34375 Z M 12.640625 -13.921875 "/></g></g></g><g fill="#7ed957" fill-opacity="1"><g transform="translate(674.905138, 183.170283)"><g><path d="M 4.796875 5.53125 C 3.609375 5.53125 2.769531 5.429688 2.28125 5.234375 C 1.800781 5.035156 1.5625 4.9375 1.5625 4.9375 L 1.5625 1.828125 L 3.265625 1.890625 C 4.015625 1.929688 4.617188 1.894531 5.078125 1.78125 C 5.535156 1.664062 5.882812 1.507812 6.125 1.3125 C 6.363281 1.125 6.53125 0.925781 6.625 0.71875 C 6.726562 0.519531 6.800781 0.359375 6.84375 0.234375 L 7.171875 -0.71875 L 0.4375 -17.3125 L 5.28125 -17.3125 L 9.4375 -6.03125 L 13.640625 -17.3125 L 18.40625 -17.3125 L 11.390625 0.09375 C 10.785156 1.570312 10.144531 2.703125 9.46875 3.484375 C 8.800781 4.265625 8.078125 4.800781 7.296875 5.09375 C 6.523438 5.382812 5.691406 5.53125 4.796875 5.53125 Z M 4.796875 5.53125 "/></g></g><g transform="translate(693.744756, 183.170283)"><g/></g></g><g fill="#7ed957" fill-opacity="1"><g transform="translate(700.845181, 183.170283)"><g><path d="M 6.28125 5.390625 L 2.71875 5.390625 L 2.71875 -27.671875 L 6.28125 -27.671875 Z M 6.28125 5.390625 "/></g></g></g><g fill="#7ed957" fill-opacity="1"><g transform="translate(709.831919, 183.170283)"><g/></g></g><g fill="#fad02c" fill-opacity="1"><g transform="translate(452.095491, 214.438835)"><g><path d="M 2.71875 -24.21875 L 7.640625 -24.21875 L 7.640625 -4.140625 L 18.15625 -4.140625 L 18.15625 0 L 2.71875 0 Z M 2.71875 -24.21875 "/></g></g></g><g fill="#fad02c" fill-opacity="1"><g transform="translate(471.437478, 214.438835)"><g><path d="M 6.109375 -7.53125 C 6.097656 -6.65625 6.238281 -5.890625 6.53125 -5.234375 C 6.820312 -4.578125 7.242188 -4.070312 7.796875 -3.71875 C 8.347656 -3.375 9.015625 -3.203125 9.796875 -3.203125 C 10.640625 -3.203125 11.375 -3.378906 12 -3.734375 C 12.632812 -4.085938 13.070312 -4.675781 13.3125 -5.5 L 17.71875 -5.5 C 17.53125 -4.269531 17.039062 -3.21875 16.25 -2.34375 C 15.46875 -1.46875 14.515625 -0.800781 13.390625 -0.34375 C 12.273438 0.101562 11.117188 0.328125 9.921875 0.328125 C 8.210938 0.328125 6.707031 -0.03125 5.40625 -0.75 C 4.101562 -1.46875 3.085938 -2.484375 2.359375 -3.796875 C 1.628906 -5.117188 1.265625 -6.671875 1.265625 -8.453125 C 1.265625 -10.191406 1.59375 -11.753906 2.25 -13.140625 C 2.914062 -14.523438 3.875 -15.625 5.125 -16.4375 C 6.382812 -17.25 7.898438 -17.65625 9.671875 -17.65625 C 11.429688 -17.65625 12.910156 -17.28125 14.109375 -16.53125 C 15.304688 -15.789062 16.207031 -14.757812 16.8125 -13.4375 C 17.425781 -12.113281 17.734375 -10.585938 17.734375 -8.859375 L 17.734375 -7.53125 Z M 6.09375 -10.453125 L 13.171875 -10.453125 C 13.171875 -11.140625 13.039062 -11.773438 12.78125 -12.359375 C 12.519531 -12.941406 12.128906 -13.398438 11.609375 -13.734375 C 11.097656 -14.066406 10.453125 -14.234375 9.671875 -14.234375 C 8.910156 -14.234375 8.265625 -14.050781 7.734375 -13.6875 C 7.203125 -13.332031 6.796875 -12.863281 6.515625 -12.28125 C 6.234375 -11.695312 6.09375 -11.085938 6.09375 -10.453125 Z M 6.09375 -10.453125 "/></g></g></g><g fill="#fad02c" fill-opacity="1"><g transform="translate(490.47803, 214.438835)"><g><path d="M 7.125 0.328125 C 6.007812 0.328125 5.007812 0.125 4.125 -0.28125 C 3.25 -0.695312 2.550781 -1.296875 2.03125 -2.078125 C 1.519531 -2.867188 1.265625 -3.828125 1.265625 -4.953125 C 1.265625 -6.859375 1.972656 -8.300781 3.390625 -9.28125 C 4.816406 -10.269531 7.054688 -10.785156 10.109375 -10.828125 L 12.28125 -10.859375 L 12.28125 -11.890625 C 12.28125 -12.679688 12.046875 -13.289062 11.578125 -13.71875 C 11.117188 -14.15625 10.40625 -14.367188 9.4375 -14.359375 C 8.71875 -14.347656 8.035156 -14.175781 7.390625 -13.84375 C 6.753906 -13.519531 6.316406 -12.957031 6.078125 -12.15625 L 2.015625 -12.15625 C 2.078125 -13.40625 2.4375 -14.4375 3.09375 -15.25 C 3.757812 -16.0625 4.65625 -16.664062 5.78125 -17.0625 C 6.914062 -17.457031 8.203125 -17.65625 9.640625 -17.65625 C 11.421875 -17.65625 12.847656 -17.429688 13.921875 -16.984375 C 14.992188 -16.546875 15.769531 -15.914062 16.25 -15.09375 C 16.726562 -14.28125 16.96875 -13.304688 16.96875 -12.171875 L 16.96875 0 L 12.875 0 L 12.484375 -2.984375 C 11.890625 -1.734375 11.144531 -0.867188 10.25 -0.390625 C 9.363281 0.0859375 8.320312 0.328125 7.125 0.328125 Z M 8.765625 -2.875 C 9.210938 -2.875 9.644531 -2.953125 10.0625 -3.109375 C 10.476562 -3.273438 10.847656 -3.492188 11.171875 -3.765625 C 11.503906 -4.046875 11.769531 -4.359375 11.96875 -4.703125 C 12.175781 -5.046875 12.28125 -5.40625 12.28125 -5.78125 L 12.28125 -8.34375 L 10.515625 -8.3125 C 9.703125 -8.300781 8.941406 -8.203125 8.234375 -8.015625 C 7.535156 -7.828125 6.96875 -7.523438 6.53125 -7.109375 C 6.101562 -6.703125 5.890625 -6.144531 5.890625 -5.4375 C 5.890625 -4.632812 6.171875 -4.003906 6.734375 -3.546875 C 7.296875 -3.097656 7.972656 -2.875 8.765625 -2.875 Z M 8.765625 -2.875 "/></g></g></g><g fill="#fad02c" fill-opacity="1"><g transform="translate(509.686043, 214.438835)"><g><path d="M 2.09375 5.390625 L 2.09375 -17.3125 L 7 -17.3125 L 7.015625 -14.828125 C 7.273438 -15.234375 7.59375 -15.609375 7.96875 -15.953125 C 8.34375 -16.296875 8.757812 -16.59375 9.21875 -16.84375 C 9.675781 -17.101562 10.171875 -17.300781 10.703125 -17.4375 C 11.234375 -17.582031 11.796875 -17.65625 12.390625 -17.65625 C 13.679688 -17.65625 14.828125 -17.335938 15.828125 -16.703125 C 16.835938 -16.078125 17.628906 -15.109375 18.203125 -13.796875 C 18.773438 -12.484375 19.0625 -10.816406 19.0625 -8.796875 C 19.0625 -6.691406 18.75 -4.96875 18.125 -3.625 C 17.507812 -2.28125 16.660156 -1.285156 15.578125 -0.640625 C 14.492188 0.00390625 13.269531 0.328125 11.90625 0.328125 C 11.351562 0.328125 10.828125 0.25 10.328125 0.09375 C 9.835938 -0.0507812 9.382812 -0.253906 8.96875 -0.515625 C 8.550781 -0.785156 8.175781 -1.09375 7.84375 -1.4375 C 7.519531 -1.789062 7.234375 -2.175781 6.984375 -2.59375 L 6.984375 5.390625 Z M 10.734375 -3.25 C 11.796875 -3.25 12.6875 -3.6875 13.40625 -4.5625 C 14.125 -5.445312 14.484375 -6.847656 14.484375 -8.765625 C 14.484375 -10.429688 14.140625 -11.738281 13.453125 -12.6875 C 12.765625 -13.632812 11.859375 -14.109375 10.734375 -14.109375 C 9.472656 -14.109375 8.53125 -13.59375 7.90625 -12.5625 C 7.289062 -11.539062 6.984375 -10.273438 6.984375 -8.765625 C 6.984375 -7.785156 7.117188 -6.878906 7.390625 -6.046875 C 7.671875 -5.210938 8.085938 -4.535156 8.640625 -4.015625 C 9.191406 -3.503906 9.890625 -3.25 10.734375 -3.25 Z M 10.734375 -3.25 "/></g></g></g><g fill="#fad02c" fill-opacity="1"><g transform="translate(529.898845, 214.438835)"><g/></g></g><g fill="#fad02c" fill-opacity="1"><g transform="translate(536.999284, 214.438835)"><g><path d="M 2.71875 0 L 2.71875 -24.21875 L 11.484375 -24.21875 C 14.660156 -24.21875 17.015625 -23.671875 18.546875 -22.578125 C 20.085938 -21.492188 20.859375 -19.925781 20.859375 -17.875 C 20.859375 -16.664062 20.550781 -15.617188 19.9375 -14.734375 C 19.320312 -13.847656 18.226562 -13.070312 16.65625 -12.40625 C 17.664062 -12.15625 18.484375 -11.8125 19.109375 -11.375 C 19.734375 -10.9375 20.210938 -10.453125 20.546875 -9.921875 C 20.890625 -9.390625 21.117188 -8.835938 21.234375 -8.265625 C 21.359375 -7.691406 21.421875 -7.125 21.421875 -6.5625 C 21.421875 -4.332031 20.660156 -2.679688 19.140625 -1.609375 C 17.628906 -0.535156 15.210938 0 11.890625 0 Z M 7.59375 -3.78125 L 12 -3.78125 C 13.46875 -3.78125 14.578125 -4.078125 15.328125 -4.671875 C 16.085938 -5.265625 16.46875 -6.054688 16.46875 -7.046875 C 16.46875 -7.765625 16.28125 -8.363281 15.90625 -8.84375 C 15.539062 -9.332031 15.039062 -9.695312 14.40625 -9.9375 C 13.78125 -10.1875 13.066406 -10.3125 12.265625 -10.3125 L 7.59375 -10.3125 Z M 7.59375 -14.203125 L 12.265625 -14.203125 C 12.765625 -14.203125 13.242188 -14.257812 13.703125 -14.375 C 14.171875 -14.5 14.585938 -14.679688 14.953125 -14.921875 C 15.316406 -15.171875 15.601562 -15.488281 15.8125 -15.875 C 16.019531 -16.257812 16.125 -16.710938 16.125 -17.234375 C 16.125 -18.285156 15.726562 -19.082031 14.9375 -19.625 C 14.15625 -20.164062 13.148438 -20.4375 11.921875 -20.4375 L 7.59375 -20.4375 Z M 7.59375 -14.203125 "/></g></g></g><g fill="#fad02c" fill-opacity="1"><g transform="translate(559.924983, 214.438835)"><g><path d="M 6.109375 -7.53125 C 6.097656 -6.65625 6.238281 -5.890625 6.53125 -5.234375 C 6.820312 -4.578125 7.242188 -4.070312 7.796875 -3.71875 C 8.347656 -3.375 9.015625 -3.203125 9.796875 -3.203125 C 10.640625 -3.203125 11.375 -3.378906 12 -3.734375 C 12.632812 -4.085938 13.070312 -4.675781 13.3125 -5.5 L 17.71875 -5.5 C 17.53125 -4.269531 17.039062 -3.21875 16.25 -2.34375 C 15.46875 -1.46875 14.515625 -0.800781 13.390625 -0.34375 C 12.273438 0.101562 11.117188 0.328125 9.921875 0.328125 C 8.210938 0.328125 6.707031 -0.03125 5.40625 -0.75 C 4.101562 -1.46875 3.085938 -2.484375 2.359375 -3.796875 C 1.628906 -5.117188 1.265625 -6.671875 1.265625 -8.453125 C 1.265625 -10.191406 1.59375 -11.753906 2.25 -13.140625 C 2.914062 -14.523438 3.875 -15.625 5.125 -16.4375 C 6.382812 -17.25 7.898438 -17.65625 9.671875 -17.65625 C 11.429688 -17.65625 12.910156 -17.28125 14.109375 -16.53125 C 15.304688 -15.789062 16.207031 -14.757812 16.8125 -13.4375 C 17.425781 -12.113281 17.734375 -10.585938 17.734375 -8.859375 L 17.734375 -7.53125 Z M 6.09375 -10.453125 L 13.171875 -10.453125 C 13.171875 -11.140625 13.039062 -11.773438 12.78125 -12.359375 C 12.519531 -12.941406 12.128906 -13.398438 11.609375 -13.734375 C 11.097656 -14.066406 10.453125 -14.234375 9.671875 -14.234375 C 8.910156 -14.234375 8.265625 -14.050781 7.734375 -13.6875 C 7.203125 -13.332031 6.796875 -12.863281 6.515625 -12.28125 C 6.234375 -11.695312 6.09375 -11.085938 6.09375 -10.453125 Z M 6.09375 -10.453125 "/></g></g></g><g fill="#fad02c" fill-opacity="1"><g transform="translate(578.965535, 214.438835)"><g><path d="M 4.796875 5.53125 C 3.609375 5.53125 2.769531 5.429688 2.28125 5.234375 C 1.800781 5.035156 1.5625 4.9375 1.5625 4.9375 L 1.5625 1.828125 L 3.265625 1.890625 C 4.015625 1.929688 4.617188 1.894531 5.078125 1.78125 C 5.535156 1.664062 5.882812 1.507812 6.125 1.3125 C 6.363281 1.125 6.53125 0.925781 6.625 0.71875 C 6.726562 0.519531 6.800781 0.359375 6.84375 0.234375 L 7.171875 -0.71875 L 0.4375 -17.3125 L 5.28125 -17.3125 L 9.4375 -6.03125 L 13.640625 -17.3125 L 18.40625 -17.3125 L 11.390625 0.09375 C 10.785156 1.570312 10.144531 2.703125 9.46875 3.484375 C 8.800781 4.265625 8.078125 4.800781 7.296875 5.09375 C 6.523438 5.382812 5.691406 5.53125 4.796875 5.53125 Z M 4.796875 5.53125 "/></g></g></g><g fill="#fad02c" fill-opacity="1"><g transform="translate(597.805139, 214.438835)"><g><path d="M 9.53125 0.328125 C 7.832031 0.328125 6.351562 -0.03125 5.09375 -0.75 C 3.84375 -1.476562 2.875 -2.503906 2.1875 -3.828125 C 1.5 -5.160156 1.15625 -6.738281 1.15625 -8.5625 C 1.15625 -10.382812 1.5 -11.972656 2.1875 -13.328125 C 2.875 -14.691406 3.84375 -15.753906 5.09375 -16.515625 C 6.351562 -17.273438 7.835938 -17.65625 9.546875 -17.65625 C 11.253906 -17.65625 12.734375 -17.28125 13.984375 -16.53125 C 15.234375 -15.789062 16.195312 -14.738281 16.875 -13.375 C 17.5625 -12.019531 17.90625 -10.414062 17.90625 -8.5625 C 17.90625 -6.820312 17.570312 -5.28125 16.90625 -3.9375 C 16.238281 -2.601562 15.28125 -1.554688 14.03125 -0.796875 C 12.789062 -0.046875 11.289062 0.328125 9.53125 0.328125 Z M 9.546875 -3.296875 C 10.410156 -3.296875 11.101562 -3.546875 11.625 -4.046875 C 12.144531 -4.554688 12.523438 -5.21875 12.765625 -6.03125 C 13.003906 -6.851562 13.125 -7.753906 13.125 -8.734375 C 13.125 -9.640625 13.015625 -10.5 12.796875 -11.3125 C 12.585938 -12.132812 12.21875 -12.796875 11.6875 -13.296875 C 11.164062 -13.796875 10.453125 -14.046875 9.546875 -14.046875 C 8.679688 -14.046875 7.984375 -13.804688 7.453125 -13.328125 C 6.929688 -12.859375 6.546875 -12.21875 6.296875 -11.40625 C 6.046875 -10.601562 5.921875 -9.710938 5.921875 -8.734375 C 5.921875 -7.828125 6.03125 -6.957031 6.25 -6.125 C 6.476562 -5.289062 6.851562 -4.609375 7.375 -4.078125 C 7.90625 -3.554688 8.628906 -3.296875 9.546875 -3.296875 Z M 9.546875 -3.296875 "/></g></g></g><g fill="#fad02c" fill-opacity="1"><g transform="translate(616.862441, 214.438835)"><g><path d="M 2.09375 0 L 2.09375 -17.3125 L 6.90625 -17.3125 L 6.90625 -14.875 C 7.164062 -15.300781 7.507812 -15.710938 7.9375 -16.109375 C 8.375 -16.503906 8.921875 -16.828125 9.578125 -17.078125 C 10.234375 -17.335938 11.015625 -17.46875 11.921875 -17.46875 C 12.984375 -17.46875 13.972656 -17.257812 14.890625 -16.84375 C 15.816406 -16.4375 16.5625 -15.785156 17.125 -14.890625 C 17.695312 -14.003906 17.984375 -12.847656 17.984375 -11.421875 L 17.984375 0 L 13.09375 0 L 13.09375 -10.828125 C 13.09375 -11.765625 12.8125 -12.46875 12.25 -12.9375 C 11.695312 -13.40625 11.019531 -13.640625 10.21875 -13.640625 C 9.675781 -13.640625 9.15625 -13.539062 8.65625 -13.34375 C 8.164062 -13.15625 7.765625 -12.867188 7.453125 -12.484375 C 7.140625 -12.109375 6.984375 -11.644531 6.984375 -11.09375 L 6.984375 0 Z M 2.09375 0 "/></g></g></g><g fill="#fad02c" fill-opacity="1"><g transform="translate(636.72356, 214.438835)"><g><path d="M 8.53125 0.328125 C 6.207031 0.328125 4.394531 -0.46875 3.09375 -2.0625 C 1.800781 -3.664062 1.15625 -5.898438 1.15625 -8.765625 C 1.15625 -10.566406 1.414062 -12.128906 1.9375 -13.453125 C 2.46875 -14.785156 3.242188 -15.816406 4.265625 -16.546875 C 5.296875 -17.285156 6.554688 -17.65625 8.046875 -17.65625 C 8.671875 -17.65625 9.253906 -17.582031 9.796875 -17.4375 C 10.335938 -17.300781 10.828125 -17.109375 11.265625 -16.859375 C 11.710938 -16.617188 12.101562 -16.335938 12.4375 -16.015625 C 12.78125 -15.691406 13.054688 -15.34375 13.265625 -14.96875 L 13.265625 -24.890625 L 18.171875 -24.890625 L 18.171875 0 L 14.625 0 L 14.0625 -3.546875 C 13.90625 -3.066406 13.6875 -2.597656 13.40625 -2.140625 C 13.132812 -1.679688 12.78125 -1.265625 12.34375 -0.890625 C 11.90625 -0.515625 11.367188 -0.21875 10.734375 0 C 10.109375 0.21875 9.375 0.328125 8.53125 0.328125 Z M 9.59375 -3.1875 C 10.820312 -3.1875 11.738281 -3.613281 12.34375 -4.46875 C 12.957031 -5.332031 13.265625 -6.785156 13.265625 -8.828125 C 13.253906 -10.015625 13.113281 -11 12.84375 -11.78125 C 12.582031 -12.5625 12.1875 -13.144531 11.65625 -13.53125 C 11.125 -13.914062 10.445312 -14.109375 9.625 -14.109375 C 8.570312 -14.109375 7.691406 -13.703125 6.984375 -12.890625 C 6.273438 -12.078125 5.921875 -10.722656 5.921875 -8.828125 C 5.921875 -6.890625 6.25 -5.460938 6.90625 -4.546875 C 7.570312 -3.640625 8.46875 -3.1875 9.59375 -3.1875 Z M 9.59375 -3.1875 "/></g></g></g><g fill="#fad02c" fill-opacity="1"><g transform="translate(656.976327, 214.438835)"><g/></g></g></svg>